<svg width="20" height="20" viewBox="0 0 20 20" fill="none" xmlns="http://www.w3.org/2000/svg">
<g id="Frame">
<path id="Vector" d="M6.66675 5.83334H13.3334" stroke="white" stroke-width="1.25" stroke-linecap="round" stroke-linejoin="round"/>
<path id="Vector_2" d="M6.66675 9.16666H10.0001" stroke="white" stroke-width="1.25" stroke-linecap="round" stroke-linejoin="round"/>
<path id="Vector_3" d="M10.8333 17.9167V17.5C10.8333 15.143 10.8333 13.9645 11.5655 13.2322C12.2978 12.5 13.4763 12.5 15.8333 12.5H16.2499M16.6666 11.1192V8.33332C16.6666 5.19062 16.6666 3.61928 15.6903 2.64296C14.714 1.66666 13.1426 1.66666 9.99992 1.66666C6.85723 1.66666 5.28588 1.66666 4.30956 2.64296C3.33325 3.61927 3.33325 5.19062 3.33325 8.33332V12.1202C3.33325 14.8243 3.33325 16.1764 4.07164 17.0922C4.22082 17.2772 4.38934 17.4457 4.57436 17.5949C5.49018 18.3333 6.84227 18.3333 9.54642 18.3333C10.1344 18.3333 10.4283 18.3333 10.6976 18.2383C10.7536 18.2186 10.8084 18.1958 10.862 18.1702C11.1196 18.047 11.3274 17.8392 11.7432 17.4234L15.6903 13.4763C16.172 12.9946 16.4128 12.7537 16.5398 12.4474C16.6666 12.1412 16.6666 11.8005 16.6666 11.1192Z" stroke="white" stroke-width="1.25" stroke-linecap="round" stroke-linejoin="round"/>
</g>
</svg>
