<svg width="20" height="20" viewBox="0 0 20 20" fill="none" xmlns="http://www.w3.org/2000/svg">
<g id="Frame">
<path id="Vector" d="M6.6665 5.83334H13.3332" stroke="#203876" stroke-width="1.25" stroke-linecap="round" stroke-linejoin="round"/>
<path id="Vector_2" d="M6.6665 9.16666H9.99984" stroke="#203876" stroke-width="1.25" stroke-linecap="round" stroke-linejoin="round"/>
<path id="Vector_3" d="M10.8335 17.9167V17.5C10.8335 15.143 10.8335 13.9645 11.5657 13.2322C12.298 12.5 13.4765 12.5 15.8335 12.5H16.2502M16.6668 11.1192V8.33332C16.6668 5.19062 16.6668 3.61928 15.6905 2.64296C14.7142 1.66666 13.1428 1.66666 10.0002 1.66666C6.85747 1.66666 5.28612 1.66666 4.3098 2.64296C3.3335 3.61927 3.3335 5.19062 3.3335 8.33332V12.1202C3.3335 14.8243 3.3335 16.1764 4.07189 17.0922C4.22106 17.2772 4.38959 17.4457 4.5746 17.5949C5.49042 18.3333 6.84251 18.3333 9.54666 18.3333C10.1347 18.3333 10.4286 18.3333 10.6978 18.2383C10.7538 18.2186 10.8087 18.1958 10.8622 18.1702C11.1198 18.047 11.3277 17.8392 11.7434 17.4234L15.6905 13.4763C16.1722 12.9946 16.4131 12.7537 16.54 12.4474C16.6668 12.1412 16.6668 11.8005 16.6668 11.1192Z" stroke="#203876" stroke-width="1.25" stroke-linecap="round" stroke-linejoin="round"/>
</g>
</svg>
