<svg width="20" height="20" viewBox="0 0 20 20" fill="none" xmlns="http://www.w3.org/2000/svg">
<g clip-path="url(#clip0_267_1174)">
<path d="M19.9483 11.5095L18.936 9.92956C18.4889 9.23139 17.7294 8.81449 16.9038 8.81449H14.2857V7.27775C14.2857 6.33942 13.5376 5.57641 12.6177 5.57641H7.71656C7.44155 4.11138 6.17727 2.99988 4.66192 2.99988C2.94606 2.99988 1.55022 4.42383 1.55022 6.17383C1.55022 7.27429 2.10263 8.24496 2.93894 8.81454H0.317615C0.142113 8.81454 4.65575e-05 8.95945 4.65575e-05 9.13842C4.65575e-05 9.31738 0.142113 9.46229 0.317569 9.46229H3.49214V10.1099H2.22214C2.18046 10.1099 2.13918 10.1183 2.10066 10.1346C2.06215 10.1508 2.02716 10.1747 1.99769 10.2048C1.96822 10.2348 1.94485 10.2706 1.92891 10.3098C1.91297 10.3491 1.90478 10.3913 1.90481 10.4338C1.90478 10.4763 1.91298 10.5184 1.92891 10.5577C1.94485 10.597 1.96823 10.6326 1.9977 10.6627C2.02717 10.6928 2.06216 10.7166 2.10068 10.7329C2.13919 10.7491 2.18046 10.7575 2.22214 10.7575H3.49209V11.405H0.317522C0.275824 11.405 0.23453 11.4134 0.196001 11.4296C0.157472 11.4459 0.122463 11.4697 0.0929758 11.4998C0.063488 11.5299 0.0400993 11.5656 0.024146 11.6049C0.00819279 11.6442 -1.21689e-05 11.6863 5.4532e-08 11.7288C-2.4393e-05 11.7714 0.00817154 11.8135 0.0241193 11.8528C0.0400671 11.8921 0.0634539 11.9278 0.0929428 11.9579C0.122432 11.988 0.157444 12.0119 0.195979 12.0281C0.234514 12.0444 0.275816 12.0528 0.317522 12.0528H3.49209V13.4869C2.93243 13.7387 2.53971 14.3082 2.53971 14.9712V15.2908C2.53971 15.3767 2.57316 15.4591 2.6327 15.5198C2.69223 15.5805 2.77299 15.6147 2.85719 15.6147H5.67281C5.85338 16.407 6.54985 16.9999 7.38086 16.9999C8.21215 16.9999 8.90839 16.407 9.08896 15.6147H15.1967C15.3774 16.407 16.0738 16.9999 16.9047 16.9999C17.7356 16.9999 18.4322 16.407 18.6128 15.6147H19.6826C19.7243 15.6147 19.7655 15.6063 19.8041 15.59C19.8426 15.5738 19.8776 15.5499 19.9071 15.5198C19.9365 15.4898 19.9599 15.454 19.9758 15.4147C19.9918 15.3755 19.9999 15.3333 19.9999 15.2908V11.6866C19.9999 11.6237 19.982 11.5622 19.9483 11.5095H19.9483ZM2.18513 6.17379C2.18513 4.78081 3.29627 3.64739 4.66192 3.64739C6.02776 3.64739 7.13876 4.78081 7.13876 6.17379C7.13876 7.56676 6.02781 8.70018 4.66192 8.70018C3.29627 8.70018 2.18513 7.56676 2.18513 6.17379ZM4.12695 12.0528H4.76181C4.80352 12.0528 4.84483 12.0444 4.88337 12.0282C4.92191 12.0119 4.95693 11.988 4.98642 11.958C5.01592 11.9279 5.03931 11.8921 5.05526 11.8528C5.07121 11.8135 5.0794 11.7714 5.07938 11.7288C5.0794 11.6863 5.0712 11.6442 5.05524 11.6049C5.03929 11.5656 5.0159 11.5299 4.98641 11.4998C4.95691 11.4697 4.9219 11.4458 4.88336 11.4296C4.84482 11.4133 4.80352 11.4049 4.76181 11.405H4.12695V10.7574H6.34933C6.39101 10.7574 6.43228 10.7491 6.47078 10.7328C6.50929 10.7165 6.54428 10.6927 6.57375 10.6626C6.60321 10.6326 6.62658 10.5969 6.64252 10.5576C6.65845 10.5183 6.66664 10.4762 6.66662 10.4337C6.66664 10.3912 6.65845 10.3491 6.64252 10.3098C6.62658 10.2705 6.60321 10.2348 6.57374 10.2047C6.54427 10.1746 6.50928 10.1508 6.47077 10.1345C6.43225 10.1182 6.39097 10.1099 6.34928 10.1099H4.12695V9.4622H8.25391C8.42922 9.4622 8.57143 9.31734 8.57143 9.13832C8.57143 8.95931 8.42922 8.81445 8.25391 8.81445H6.3849C7.20833 8.2536 7.75456 7.30346 7.77125 6.22397H12.6179C13.1874 6.22397 13.6508 6.69679 13.6508 7.2777V13.3478H4.131C4.12974 13.3478 4.12844 13.3482 4.127 13.3482L4.12695 12.0528ZM13.6508 14.9669H9.11784C9.06789 14.5945 8.90588 14.2588 8.66662 13.9955H13.6508L13.6508 14.9669ZM4.13095 13.9955H6.09515C5.85612 14.2588 5.69387 14.5945 5.64411 14.9669H3.17457C3.17671 14.4311 3.60505 13.9955 4.13095 13.9955ZM7.38091 16.3523C6.76344 16.3523 6.26084 15.8398 6.26084 15.2098C6.26084 14.5801 6.76344 14.0674 7.38091 14.0674C7.99851 14.0674 8.50098 14.5801 8.50098 15.2098C8.50098 15.8398 7.99851 16.3523 7.38091 16.3523ZM16.9047 16.3523C16.2873 16.3523 15.7847 15.8398 15.7847 15.2098C15.7847 14.5801 16.2873 14.0674 16.9048 14.0674C17.5223 14.0674 18.0248 14.5801 18.0248 15.2098C18.0248 15.8398 17.5223 16.3523 16.9047 16.3523ZM19.365 14.9669H18.6416C18.5248 14.0948 17.7913 13.4198 16.9047 13.4198C16.018 13.4198 15.2847 14.0948 15.1677 14.9669H14.2856V9.46229H16.9038C17.514 9.46229 18.0751 9.76928 18.4046 10.2836L19.365 11.783V14.9669Z" fill="white"/>
<path d="M17.4242 15.2097C17.4242 15.5022 17.1917 15.7394 16.9048 15.7394C16.618 15.7394 16.3855 15.5022 16.3855 15.2097C16.3855 14.9171 16.618 14.6799 16.9048 14.6799C17.1917 14.6799 17.4242 14.9171 17.4242 15.2097ZM7.90032 15.2097C7.90032 15.5022 7.6678 15.7394 7.38097 15.7394C7.09433 15.7394 6.86181 15.5022 6.86181 15.2097C6.86181 14.9171 7.09433 14.6799 7.38097 14.6799C7.6678 14.6799 7.90032 14.9171 7.90032 15.2097ZM5.07945 6.1736V4.75691C5.07946 4.71438 5.07125 4.67227 5.0553 4.63297C5.03934 4.59368 5.01594 4.55798 4.98645 4.52792C4.95695 4.49786 4.92194 4.47402 4.8834 4.45777C4.84487 4.44152 4.80358 4.43318 4.76188 4.43323C4.7202 4.4332 4.67892 4.44156 4.64041 4.45782C4.6019 4.47407 4.56691 4.49792 4.53743 4.52798C4.50796 4.55804 4.48459 4.59373 4.46865 4.63301C4.45271 4.6723 4.44452 4.7144 4.44454 4.75691V6.06797L3.79662 6.97461C3.77204 7.00893 3.75433 7.04786 3.74452 7.08916C3.7347 7.13047 3.73297 7.17334 3.73941 7.21533C3.74585 7.25732 3.76035 7.2976 3.78207 7.33387C3.80379 7.37014 3.83231 7.40168 3.866 7.4267C3.92019 7.46731 3.98569 7.4892 4.05294 7.48917C4.103 7.48923 4.15237 7.47717 4.19698 7.45401C4.24159 7.43084 4.28019 7.39721 4.30959 7.35588L5.01858 6.36429C5.05813 6.3089 5.07945 6.24213 5.07945 6.1736ZM16.7978 9.78575H16.1905C16.1488 9.78573 16.1075 9.7941 16.069 9.81037C16.0305 9.82664 15.9955 9.8505 15.966 9.88059C15.9365 9.91067 15.9131 9.94639 15.8971 9.98569C15.8812 10.025 15.873 10.0671 15.873 10.1097V12.3763C15.873 12.4188 15.8812 12.4609 15.8972 12.5002C15.9131 12.5395 15.9365 12.5753 15.966 12.6053C15.9955 12.6354 16.0305 12.6593 16.069 12.6755C16.1075 12.6918 16.1488 12.7002 16.1905 12.7001H18.3271C18.5262 12.7001 18.7044 12.5951 18.8043 12.4196C18.9043 12.2441 18.9045 12.034 18.806 11.859L18.0647 10.5354C17.8058 10.0733 17.3202 9.78575 16.7978 9.78575ZM16.5081 12.0526V10.4335H16.7978C16.9431 10.4337 17.0857 10.4729 17.2113 10.5472C17.3369 10.6215 17.4411 10.7284 17.5133 10.8569L18.1831 12.0526H16.5081Z" fill="white"/>
</g>
<defs>
<clipPath id="clip0_267_1174">
<rect width="20" height="20" fill="white"/>
</clipPath>
</defs>
</svg>
