<svg width="20" height="20" viewBox="0 0 20 20" fill="none" xmlns="http://www.w3.org/2000/svg">
<path d="M12.4838 5.84619C12.4838 5.84619 12.9004 6.26286 13.3171 7.09619C13.3171 7.09619 14.6406 5.01286 15.8171 4.59619" stroke="#203876" stroke-width="1.25" stroke-linecap="round" stroke-linejoin="round"/>
<path d="M8.32912 1.6845C6.24706 1.59635 4.63851 1.8362 4.63851 1.8362C3.62281 1.90883 1.6763 2.47826 1.67631 5.80384C1.67633 9.10114 1.65478 13.1661 1.67631 14.7866C1.67631 15.7767 2.28933 18.0861 4.41113 18.2099C6.99016 18.3604 11.6357 18.3924 13.7671 18.2099C14.3377 18.1777 16.2373 17.7298 16.4777 15.6631C16.7268 13.522 16.6772 12.034 16.6772 11.6798" stroke="#203876" stroke-width="1.25" stroke-linecap="round" stroke-linejoin="round"/>
<path d="M18.3333 5.84635C18.3333 8.14754 16.466 10.0131 14.1626 10.0131C11.8592 10.0131 9.99194 8.14754 9.99194 5.84635C9.99194 3.54517 11.8592 1.67969 14.1626 1.67969C16.466 1.67969 18.3333 3.54517 18.3333 5.84635Z" stroke="#203876" stroke-width="1.25" stroke-linecap="round"/>
<path d="M5.81714 10.8464H9.15045" stroke="#203876" stroke-width="1.25" stroke-linecap="round"/>
<path d="M5.81714 14.1797H12.4838" stroke="#203876" stroke-width="1.25" stroke-linecap="round"/>
</svg>
