<svg width="16" height="16" viewBox="0 0 16 16" fill="none" xmlns="http://www.w3.org/2000/svg">
<g id="Frame">
<path id="Vector" d="M7.33336 14.6667H3.66671C2.93032 14.6667 2.33337 14.0698 2.33337 13.3334L2.33347 2.66669C2.33347 1.93032 2.93042 1.33337 3.6668 1.33337H12.3334C13.0698 1.33337 13.6667 1.93033 13.6667 2.66671V7.00004" stroke="#78829D" stroke-linecap="round" stroke-linejoin="round"/>
<path id="Vector_2" d="M5 4.66663H11" stroke="#78829D" stroke-linecap="round" stroke-linejoin="round"/>
<path id="Vector_3" d="M5 8H9" stroke="#78829D" stroke-linecap="round" stroke-linejoin="round"/>
<path id="Vector_4" d="M13.6666 13.3334V11.3334C13.6666 10.3804 12.7712 9.33337 11.6666 9.33337C10.562 9.33337 9.66663 10.3804 9.66663 11.3334V13.6667C9.66663 14.219 10.1144 14.6667 10.6666 14.6667C11.2189 14.6667 11.6666 14.219 11.6666 13.6667V11.3334" stroke="#78829D" stroke-linecap="round" stroke-linejoin="round"/>
</g>
</svg>
