<svg width="24" height="24" viewBox="0 0 24 24" fill="none" xmlns="http://www.w3.org/2000/svg">
<mask id="path-1-inside-1_305_1833" fill="white">
<path d="M17.2359 4C16.0995 4 15.0751 4.49322 14.3606 5.27887H12.9266V5.00454C12.9266 4.85495 12.8067 4.73368 12.6587 4.73368C12.5108 4.73368 12.3909 4.85495 12.3909 5.00454V5.27887H11.5606V5.00454C11.5606 4.9327 11.5324 4.86381 11.4822 4.81301C11.4319 4.76222 11.3638 4.73368 11.2927 4.73368C11.2217 4.73368 11.1536 4.76222 11.1033 4.81301C11.0531 4.86381 11.0249 4.9327 11.0249 5.00454V5.27887H10.1946V5.00454C10.1946 4.9327 10.1664 4.86381 10.1162 4.81301C10.0659 4.76222 9.99779 4.73368 9.92675 4.73368C9.85571 4.73368 9.78758 4.76222 9.73735 4.81301C9.68711 4.86381 9.65889 4.9327 9.65889 5.00454V5.27887H8.82861V5.00454C8.82861 4.9327 8.80039 4.86381 8.75015 4.81301C8.69992 4.76222 8.63179 4.73368 8.56075 4.73368C8.48971 4.73368 8.42158 4.76222 8.37135 4.81301C8.32111 4.86381 8.29289 4.9327 8.29289 5.00454V5.27887H7.46261V5.00454C7.46261 4.9327 7.43439 4.86381 7.38415 4.81301C7.33392 4.76222 7.26579 4.73368 7.19475 4.73368C7.12371 4.73368 7.05558 4.76222 7.00535 4.81301C6.95511 4.86381 6.92689 4.9327 6.92689 5.00454V5.27887H6.09664V5.00454C6.09664 4.9327 6.06842 4.86381 6.01819 4.81301C5.96796 4.76222 5.89983 4.73368 5.82879 4.73368C5.75774 4.73368 5.68961 4.76222 5.63938 4.81301C5.58915 4.86381 5.56093 4.9327 5.56093 5.00454V5.27887H4.96243C4.528 5.27887 4.17453 5.63627 4.17453 6.07561V12.0771H3.26432C3.03982 12.0771 2.85718 12.2618 2.85718 12.4888V18.2642C2.85718 18.4912 3.03982 18.6759 3.26432 18.6759H4.15578C4.24057 19.4201 4.86714 20 5.62543 20C6.38371 20 7.01029 19.4201 7.09507 18.6759H10.1456C10.2304 19.4201 10.857 20 11.6153 20C12.3736 20 13.0002 19.4201 13.085 18.6759H14.1488C14.3733 18.6759 14.556 18.4912 14.556 18.2642V18.0484H16C16.148 18.0484 16.2679 17.9271 16.2679 17.7775C16.2679 17.628 16.148 17.5067 16 17.5067H14.556V17.0749H17.8578C18.104 17.0749 18.3042 16.8724 18.3042 16.6234V11.7517C18.4493 11.7097 18.5919 11.6593 18.7312 11.6006V17.4164C18.7312 17.4662 18.6912 17.5067 18.642 17.5067H17.25C17.1021 17.5067 16.9822 17.628 16.9822 17.7775C16.9822 17.9271 17.1021 18.0484 17.25 18.0484H18.642C18.9866 18.0484 19.267 17.7649 19.267 17.4164V11.3241C20.3909 10.6295 21.1429 9.37757 21.1429 7.95092C21.1429 5.77238 19.3902 4 17.2359 4ZM4.71028 6.07561C4.71036 6.008 4.73695 5.94318 4.78423 5.89537C4.83151 5.84757 4.8956 5.82067 4.96246 5.8206H5.56093V6.25069C5.56093 6.32253 5.58915 6.39143 5.63938 6.44222C5.68961 6.49302 5.75774 6.52156 5.82879 6.52156C5.89983 6.52156 5.96796 6.49302 6.01819 6.44222C6.06842 6.39143 6.09664 6.32253 6.09664 6.25069V5.8206H6.92693V6.25069C6.92693 6.32253 6.95515 6.39143 7.00538 6.44222C7.05561 6.49302 7.12375 6.52156 7.19479 6.52156C7.26583 6.52156 7.33396 6.49302 7.38419 6.44222C7.43442 6.39143 7.46264 6.32253 7.46264 6.25069V5.8206H8.29289V6.25069C8.29289 6.32253 8.32111 6.39143 8.37135 6.44222C8.42158 6.49302 8.48971 6.52156 8.56075 6.52156C8.63179 6.52156 8.69992 6.49302 8.75015 6.44222C8.80039 6.39143 8.82861 6.32253 8.82861 6.25069V5.8206H9.65889V6.25069C9.65889 6.32253 9.68711 6.39143 9.73735 6.44222C9.78758 6.49302 9.85571 6.52156 9.92675 6.52156C9.99779 6.52156 10.0659 6.49302 10.1162 6.44222C10.1664 6.39143 10.1946 6.32253 10.1946 6.25069V5.8206H11.0249V6.25069C11.0249 6.32253 11.0531 6.39143 11.1033 6.44222C11.1536 6.49302 11.2217 6.52156 11.2927 6.52156C11.3638 6.52156 11.4319 6.49302 11.4822 6.44222C11.5324 6.39143 11.5606 6.32253 11.5606 6.25069V5.8206H12.3909V6.25069C12.3909 6.40028 12.5108 6.52156 12.6587 6.52156C12.8067 6.52156 12.9266 6.40028 12.9266 6.25069V5.8206H13.9467C13.6248 6.32663 13.4222 6.90073 13.3546 7.49854H4.71028V6.07561ZM14.2428 10.4874H13.2517V9.01386H13.4726C13.6242 9.56219 13.8902 10.0626 14.2428 10.4874ZM4.71028 8.0403H13.3303C13.3335 8.18628 13.3443 8.33042 13.3629 8.47213H5.58375C5.33757 8.47213 5.13732 8.67463 5.13732 8.92357V12.0771H4.71028V8.0403ZM10.5186 14.2391H8.59664L8.82521 13.878H10.5186V14.2391ZM7.66354 10.4874H5.67304V9.01386H7.66354V10.4874ZM7.66354 11.0291V12.0771H5.67304V11.0291H7.66354ZM12.716 10.4874H10.7255V9.01386H12.716V10.4874ZM12.716 11.0291V12.5026H11.0544V12.4888C11.0544 12.2888 10.9126 12.1219 10.7255 12.0849V11.0291H12.716V11.0291ZM10.1898 10.4874H8.19925V9.01386H10.1898V10.4874ZM10.1898 11.0291V12.0771H8.19925V11.0291H10.1898ZM11.0544 13.0443H12.716V14.0491H11.0544V13.0443ZM5.62546 19.4583C5.10493 19.4583 4.68143 19.03 4.68143 18.5036C4.68143 17.9772 5.10493 17.549 5.62546 17.549C6.146 17.549 6.5695 17.9772 6.5695 18.5036C6.5695 19.03 6.146 19.4583 5.62546 19.4583ZM5.62546 17.0073C4.93561 17.0073 4.35453 17.4871 4.19146 18.1341H3.39289V14.7809H4.78575C4.85679 14.7809 4.92492 14.7523 4.97515 14.7015C5.02539 14.6507 5.05361 14.5818 5.05361 14.51C5.05361 14.4382 5.02539 14.3693 4.97515 14.3185C4.92492 14.2677 4.85679 14.2391 4.78575 14.2391H3.39289V13.878H7.082L6.85343 14.2391H6.03575C5.96471 14.2391 5.89658 14.2677 5.84635 14.3185C5.79611 14.3693 5.76789 14.4382 5.76789 14.51C5.76789 14.5818 5.79611 14.6507 5.84635 14.7015C5.89658 14.7523 5.96471 14.7809 6.03575 14.7809H7.00004C7.04498 14.7809 7.0892 14.7694 7.12863 14.7476C7.16805 14.7258 7.20141 14.6943 7.22564 14.656L7.79707 13.7531C7.82298 13.7122 7.83752 13.665 7.83916 13.6164C7.84081 13.5678 7.82951 13.5197 7.80644 13.4771C7.78337 13.4345 7.74938 13.3989 7.70804 13.3741C7.66669 13.3493 7.61952 13.3363 7.57146 13.3363H3.39289V12.6188H10.5186V13.3363H8.67861C8.63366 13.3363 8.58944 13.3477 8.55002 13.3695C8.51059 13.3913 8.47723 13.4228 8.453 13.4611L7.88157 14.364C7.85566 14.4049 7.84113 14.4521 7.83948 14.5007C7.83783 14.5493 7.84913 14.5974 7.8722 14.64C7.89528 14.6827 7.92926 14.7182 7.97061 14.743C8.01195 14.7678 8.05912 14.7809 8.10718 14.7809H10.5186V17.5001C10.3568 17.6805 10.241 17.8982 10.1813 18.1341H7.0595C6.89636 17.4871 6.31532 17.0073 5.62546 17.0073ZM11.6153 19.4583C11.0947 19.4583 10.6712 19.03 10.6712 18.5036C10.6712 17.9772 11.0947 17.549 11.6153 17.549C12.1359 17.549 12.5594 17.9772 12.5594 18.5036C12.5594 19.03 12.1359 19.4583 11.6153 19.4583ZM14.0203 18.1341H13.0493C12.8862 17.4871 12.3052 17.0073 11.6153 17.0073C11.4229 17.0071 11.2323 17.0452 11.0543 17.1192V14.5909H12.7403C12.9124 14.5909 13.0707 14.6783 13.1636 14.8248L13.9405 16.0488C13.9926 16.1307 14.0203 16.2261 14.0202 16.3236V18.1341H14.0203ZM15.2423 16.5331H14.556V16.3236C14.5561 16.1224 14.4989 15.9254 14.3914 15.7562L13.9492 15.0596H15.2423V16.5331ZM15.2423 14.5179H13.6047C13.5146 14.3804 13.3937 14.2663 13.2517 14.185V13.0443H15.2423V14.5179ZM15.2423 12.5026H13.2517V11.0291H14.7896C14.9329 11.1458 15.0842 11.2522 15.2423 11.3475V12.5026ZM17.7685 16.5331H15.778V15.0596H17.7685V16.5331ZM17.7685 14.5179H15.778V13.0443H17.7685V14.5179ZM17.7685 12.5026H15.778V11.6163C16.2287 11.8002 16.7207 11.9018 17.2359 11.9018C17.4165 11.9018 17.5943 11.8891 17.7685 11.8649V12.5026ZM17.2359 11.3601C15.3769 11.3601 13.8645 9.83071 13.8645 7.95092C13.8645 6.07113 15.3769 4.54176 17.2359 4.54176C19.0948 4.54176 20.6072 6.07109 20.6072 7.95092C20.6072 9.83075 19.0948 11.3601 17.2359 11.3601Z"/>
</mask>
<path d="M17.2359 4C16.0995 4 15.0751 4.49322 14.3606 5.27887H12.9266V5.00454C12.9266 4.85495 12.8067 4.73368 12.6587 4.73368C12.5108 4.73368 12.3909 4.85495 12.3909 5.00454V5.27887H11.5606V5.00454C11.5606 4.9327 11.5324 4.86381 11.4822 4.81301C11.4319 4.76222 11.3638 4.73368 11.2927 4.73368C11.2217 4.73368 11.1536 4.76222 11.1033 4.81301C11.0531 4.86381 11.0249 4.9327 11.0249 5.00454V5.27887H10.1946V5.00454C10.1946 4.9327 10.1664 4.86381 10.1162 4.81301C10.0659 4.76222 9.99779 4.73368 9.92675 4.73368C9.85571 4.73368 9.78758 4.76222 9.73735 4.81301C9.68711 4.86381 9.65889 4.9327 9.65889 5.00454V5.27887H8.82861V5.00454C8.82861 4.9327 8.80039 4.86381 8.75015 4.81301C8.69992 4.76222 8.63179 4.73368 8.56075 4.73368C8.48971 4.73368 8.42158 4.76222 8.37135 4.81301C8.32111 4.86381 8.29289 4.9327 8.29289 5.00454V5.27887H7.46261V5.00454C7.46261 4.9327 7.43439 4.86381 7.38415 4.81301C7.33392 4.76222 7.26579 4.73368 7.19475 4.73368C7.12371 4.73368 7.05558 4.76222 7.00535 4.81301C6.95511 4.86381 6.92689 4.9327 6.92689 5.00454V5.27887H6.09664V5.00454C6.09664 4.9327 6.06842 4.86381 6.01819 4.81301C5.96796 4.76222 5.89983 4.73368 5.82879 4.73368C5.75774 4.73368 5.68961 4.76222 5.63938 4.81301C5.58915 4.86381 5.56093 4.9327 5.56093 5.00454V5.27887H4.96243C4.528 5.27887 4.17453 5.63627 4.17453 6.07561V12.0771H3.26432C3.03982 12.0771 2.85718 12.2618 2.85718 12.4888V18.2642C2.85718 18.4912 3.03982 18.6759 3.26432 18.6759H4.15578C4.24057 19.4201 4.86714 20 5.62543 20C6.38371 20 7.01029 19.4201 7.09507 18.6759H10.1456C10.2304 19.4201 10.857 20 11.6153 20C12.3736 20 13.0002 19.4201 13.085 18.6759H14.1488C14.3733 18.6759 14.556 18.4912 14.556 18.2642V18.0484H16C16.148 18.0484 16.2679 17.9271 16.2679 17.7775C16.2679 17.628 16.148 17.5067 16 17.5067H14.556V17.0749H17.8578C18.104 17.0749 18.3042 16.8724 18.3042 16.6234V11.7517C18.4493 11.7097 18.5919 11.6593 18.7312 11.6006V17.4164C18.7312 17.4662 18.6912 17.5067 18.642 17.5067H17.25C17.1021 17.5067 16.9822 17.628 16.9822 17.7775C16.9822 17.9271 17.1021 18.0484 17.25 18.0484H18.642C18.9866 18.0484 19.267 17.7649 19.267 17.4164V11.3241C20.3909 10.6295 21.1429 9.37757 21.1429 7.95092C21.1429 5.77238 19.3902 4 17.2359 4ZM4.71028 6.07561C4.71036 6.008 4.73695 5.94318 4.78423 5.89537C4.83151 5.84757 4.8956 5.82067 4.96246 5.8206H5.56093V6.25069C5.56093 6.32253 5.58915 6.39143 5.63938 6.44222C5.68961 6.49302 5.75774 6.52156 5.82879 6.52156C5.89983 6.52156 5.96796 6.49302 6.01819 6.44222C6.06842 6.39143 6.09664 6.32253 6.09664 6.25069V5.8206H6.92693V6.25069C6.92693 6.32253 6.95515 6.39143 7.00538 6.44222C7.05561 6.49302 7.12375 6.52156 7.19479 6.52156C7.26583 6.52156 7.33396 6.49302 7.38419 6.44222C7.43442 6.39143 7.46264 6.32253 7.46264 6.25069V5.8206H8.29289V6.25069C8.29289 6.32253 8.32111 6.39143 8.37135 6.44222C8.42158 6.49302 8.48971 6.52156 8.56075 6.52156C8.63179 6.52156 8.69992 6.49302 8.75015 6.44222C8.80039 6.39143 8.82861 6.32253 8.82861 6.25069V5.8206H9.65889V6.25069C9.65889 6.32253 9.68711 6.39143 9.73735 6.44222C9.78758 6.49302 9.85571 6.52156 9.92675 6.52156C9.99779 6.52156 10.0659 6.49302 10.1162 6.44222C10.1664 6.39143 10.1946 6.32253 10.1946 6.25069V5.8206H11.0249V6.25069C11.0249 6.32253 11.0531 6.39143 11.1033 6.44222C11.1536 6.49302 11.2217 6.52156 11.2927 6.52156C11.3638 6.52156 11.4319 6.49302 11.4822 6.44222C11.5324 6.39143 11.5606 6.32253 11.5606 6.25069V5.8206H12.3909V6.25069C12.3909 6.40028 12.5108 6.52156 12.6587 6.52156C12.8067 6.52156 12.9266 6.40028 12.9266 6.25069V5.8206H13.9467C13.6248 6.32663 13.4222 6.90073 13.3546 7.49854H4.71028V6.07561ZM14.2428 10.4874H13.2517V9.01386H13.4726C13.6242 9.56219 13.8902 10.0626 14.2428 10.4874ZM4.71028 8.0403H13.3303C13.3335 8.18628 13.3443 8.33042 13.3629 8.47213H5.58375C5.33757 8.47213 5.13732 8.67463 5.13732 8.92357V12.0771H4.71028V8.0403ZM10.5186 14.2391H8.59664L8.82521 13.878H10.5186V14.2391ZM7.66354 10.4874H5.67304V9.01386H7.66354V10.4874ZM7.66354 11.0291V12.0771H5.67304V11.0291H7.66354ZM12.716 10.4874H10.7255V9.01386H12.716V10.4874ZM12.716 11.0291V12.5026H11.0544V12.4888C11.0544 12.2888 10.9126 12.1219 10.7255 12.0849V11.0291H12.716V11.0291ZM10.1898 10.4874H8.19925V9.01386H10.1898V10.4874ZM10.1898 11.0291V12.0771H8.19925V11.0291H10.1898ZM11.0544 13.0443H12.716V14.0491H11.0544V13.0443ZM5.62546 19.4583C5.10493 19.4583 4.68143 19.03 4.68143 18.5036C4.68143 17.9772 5.10493 17.549 5.62546 17.549C6.146 17.549 6.5695 17.9772 6.5695 18.5036C6.5695 19.03 6.146 19.4583 5.62546 19.4583ZM5.62546 17.0073C4.93561 17.0073 4.35453 17.4871 4.19146 18.1341H3.39289V14.7809H4.78575C4.85679 14.7809 4.92492 14.7523 4.97515 14.7015C5.02539 14.6507 5.05361 14.5818 5.05361 14.51C5.05361 14.4382 5.02539 14.3693 4.97515 14.3185C4.92492 14.2677 4.85679 14.2391 4.78575 14.2391H3.39289V13.878H7.082L6.85343 14.2391H6.03575C5.96471 14.2391 5.89658 14.2677 5.84635 14.3185C5.79611 14.3693 5.76789 14.4382 5.76789 14.51C5.76789 14.5818 5.79611 14.6507 5.84635 14.7015C5.89658 14.7523 5.96471 14.7809 6.03575 14.7809H7.00004C7.04498 14.7809 7.0892 14.7694 7.12863 14.7476C7.16805 14.7258 7.20141 14.6943 7.22564 14.656L7.79707 13.7531C7.82298 13.7122 7.83752 13.665 7.83916 13.6164C7.84081 13.5678 7.82951 13.5197 7.80644 13.4771C7.78337 13.4345 7.74938 13.3989 7.70804 13.3741C7.66669 13.3493 7.61952 13.3363 7.57146 13.3363H3.39289V12.6188H10.5186V13.3363H8.67861C8.63366 13.3363 8.58944 13.3477 8.55002 13.3695C8.51059 13.3913 8.47723 13.4228 8.453 13.4611L7.88157 14.364C7.85566 14.4049 7.84113 14.4521 7.83948 14.5007C7.83783 14.5493 7.84913 14.5974 7.8722 14.64C7.89528 14.6827 7.92926 14.7182 7.97061 14.743C8.01195 14.7678 8.05912 14.7809 8.10718 14.7809H10.5186V17.5001C10.3568 17.6805 10.241 17.8982 10.1813 18.1341H7.0595C6.89636 17.4871 6.31532 17.0073 5.62546 17.0073ZM11.6153 19.4583C11.0947 19.4583 10.6712 19.03 10.6712 18.5036C10.6712 17.9772 11.0947 17.549 11.6153 17.549C12.1359 17.549 12.5594 17.9772 12.5594 18.5036C12.5594 19.03 12.1359 19.4583 11.6153 19.4583ZM14.0203 18.1341H13.0493C12.8862 17.4871 12.3052 17.0073 11.6153 17.0073C11.4229 17.0071 11.2323 17.0452 11.0543 17.1192V14.5909H12.7403C12.9124 14.5909 13.0707 14.6783 13.1636 14.8248L13.9405 16.0488C13.9926 16.1307 14.0203 16.2261 14.0202 16.3236V18.1341H14.0203ZM15.2423 16.5331H14.556V16.3236C14.5561 16.1224 14.4989 15.9254 14.3914 15.7562L13.9492 15.0596H15.2423V16.5331ZM15.2423 14.5179H13.6047C13.5146 14.3804 13.3937 14.2663 13.2517 14.185V13.0443H15.2423V14.5179ZM15.2423 12.5026H13.2517V11.0291H14.7896C14.9329 11.1458 15.0842 11.2522 15.2423 11.3475V12.5026ZM17.7685 16.5331H15.778V15.0596H17.7685V16.5331ZM17.7685 14.5179H15.778V13.0443H17.7685V14.5179ZM17.7685 12.5026H15.778V11.6163C16.2287 11.8002 16.7207 11.9018 17.2359 11.9018C17.4165 11.9018 17.5943 11.8891 17.7685 11.8649V12.5026ZM17.2359 11.3601C15.3769 11.3601 13.8645 9.83071 13.8645 7.95092C13.8645 6.07113 15.3769 4.54176 17.2359 4.54176C19.0948 4.54176 20.6072 6.07109 20.6072 7.95092C20.6072 9.83075 19.0948 11.3601 17.2359 11.3601Z" fill="white" stroke="white" stroke-width="2" mask="url(#path-1-inside-1_305_1833)"/>
<mask id="path-2-inside-2_305_1833" fill="white">
<path d="M19.8643 8.2689C19.7949 8.25321 19.7223 8.26601 19.6623 8.30448C19.6023 8.34295 19.5599 8.40394 19.5444 8.47404C19.3045 9.55742 18.3337 10.3438 17.236 10.3438C15.9313 10.3438 14.8699 9.27045 14.8699 7.95116C14.8699 6.63188 15.9313 5.55857 17.236 5.55857C18.3078 5.55857 19.2483 6.29055 19.5231 7.33858C19.5321 7.37296 19.5477 7.40521 19.569 7.43349C19.5904 7.46177 19.617 7.48552 19.6474 7.50339C19.6779 7.52125 19.7115 7.53288 19.7463 7.53761C19.7812 7.54235 19.8166 7.54009 19.8506 7.53096C19.8846 7.52185 19.9165 7.50605 19.9445 7.48447C19.9724 7.46289 19.9959 7.43595 20.0136 7.40519C20.0313 7.37443 20.0428 7.34045 20.0475 7.3052C20.0521 7.26994 20.0499 7.2341 20.0409 7.19971C19.7039 5.91449 18.5505 5.01685 17.236 5.01685C15.6359 5.01685 14.3342 6.33317 14.3342 7.95116C14.3342 9.56915 15.6359 10.8855 17.236 10.8855C17.8985 10.8855 18.5468 10.6528 19.0614 10.2303C19.5682 9.8142 19.9254 9.23249 20.0671 8.59239C20.0748 8.55768 20.0756 8.52178 20.0696 8.48674C20.0636 8.4517 20.0508 8.4182 20.0319 8.38816C20.0131 8.35813 19.9886 8.33213 19.9598 8.31167C19.9311 8.29121 19.8986 8.27667 19.8643 8.2689Z"/>
</mask>
<path d="M19.8643 8.2689C19.7949 8.25321 19.7223 8.26601 19.6623 8.30448C19.6023 8.34295 19.5599 8.40394 19.5444 8.47404C19.3045 9.55742 18.3337 10.3438 17.236 10.3438C15.9313 10.3438 14.8699 9.27045 14.8699 7.95116C14.8699 6.63188 15.9313 5.55857 17.236 5.55857C18.3078 5.55857 19.2483 6.29055 19.5231 7.33858C19.5321 7.37296 19.5477 7.40521 19.569 7.43349C19.5904 7.46177 19.617 7.48552 19.6474 7.50339C19.6779 7.52125 19.7115 7.53288 19.7463 7.53761C19.7812 7.54235 19.8166 7.54009 19.8506 7.53096C19.8846 7.52185 19.9165 7.50605 19.9445 7.48447C19.9724 7.46289 19.9959 7.43595 20.0136 7.40519C20.0313 7.37443 20.0428 7.34045 20.0475 7.3052C20.0521 7.26994 20.0499 7.2341 20.0409 7.19971C19.7039 5.91449 18.5505 5.01685 17.236 5.01685C15.6359 5.01685 14.3342 6.33317 14.3342 7.95116C14.3342 9.56915 15.6359 10.8855 17.236 10.8855C17.8985 10.8855 18.5468 10.6528 19.0614 10.2303C19.5682 9.8142 19.9254 9.23249 20.0671 8.59239C20.0748 8.55768 20.0756 8.52178 20.0696 8.48674C20.0636 8.4517 20.0508 8.4182 20.0319 8.38816C20.0131 8.35813 19.9886 8.33213 19.9598 8.31167C19.9311 8.29121 19.8986 8.27667 19.8643 8.2689Z" fill="white"/>
<path d="M19.8643 8.2689L20.0851 7.29359L20.085 7.29358L19.8643 8.2689ZM19.5444 8.47404L18.568 8.25783L18.568 8.25784L19.5444 8.47404ZM19.5231 7.33858L20.4904 7.08514L20.4904 7.08493L19.5231 7.33858ZM19.8506 7.53096L19.5917 6.56505L19.5915 6.56513L19.8506 7.53096ZM20.0409 7.19971L19.0736 7.45335L19.0736 7.45352L20.0409 7.19971ZM19.0614 10.2303L19.6959 11.0032L19.696 11.0032L19.0614 10.2303ZM20.0671 8.59239L19.0908 8.37611L19.0907 8.37623L20.0671 8.59239ZM19.8643 8.2689L20.085 7.29358C19.7537 7.21859 19.4072 7.28011 19.1225 7.46269L19.6623 8.30448L20.2021 9.14627C20.0374 9.25191 19.8361 9.28784 19.6435 9.24423L19.8643 8.2689ZM19.6623 8.30448L19.1225 7.46269C18.8382 7.645 18.6402 7.93186 18.568 8.25783L19.5444 8.47404L20.5207 8.69024C20.4796 8.87601 20.3664 9.0409 20.2021 9.14627L19.6623 8.30448ZM19.5444 8.47404L18.568 8.25784C18.4279 8.89062 17.8573 9.34375 17.236 9.34375V10.3438V11.3438C18.8101 11.3438 20.1811 10.2242 20.5207 8.69023L19.5444 8.47404ZM17.236 10.3438V9.34375C16.4941 9.34375 15.8699 8.72871 15.8699 7.95116H14.8699H13.8699C13.8699 9.81218 15.3686 11.3438 17.236 11.3438V10.3438ZM14.8699 7.95116H15.8699C15.8699 7.17361 16.4941 6.55857 17.236 6.55857V5.55857V4.55857C15.3686 4.55857 13.8699 6.09014 13.8699 7.95116H14.8699ZM17.236 5.55857V6.55857C17.8461 6.55857 18.3945 6.9771 18.5558 7.59223L19.5231 7.33858L20.4904 7.08493C20.102 5.60401 18.7694 4.55857 17.236 4.55857V5.55857ZM19.5231 7.33858L18.5557 7.59201C18.5977 7.75217 18.6706 7.90302 18.7708 8.03581L19.569 7.43349L20.3673 6.83117C20.4248 6.9074 20.4665 6.99375 20.4904 7.08514L19.5231 7.33858ZM19.569 7.43349L18.7708 8.03581C18.871 8.16862 18.9966 8.28087 19.141 8.36564L19.6474 7.50339L20.1539 6.64113C20.2374 6.69017 20.3098 6.75492 20.3673 6.83117L19.569 7.43349ZM19.6474 7.50339L19.141 8.36564C19.2853 8.45043 19.4453 8.50593 19.6118 8.52853L19.7463 7.53761L19.8808 6.5467C19.9776 6.55983 20.0704 6.59207 20.1539 6.64113L19.6474 7.50339ZM19.7463 7.53761L19.6118 8.52853C19.7783 8.55113 19.9476 8.54031 20.1098 8.4968L19.8506 7.53096L19.5915 6.56513C19.6856 6.53986 19.784 6.53356 19.8808 6.5467L19.7463 7.53761ZM19.8506 7.53096L20.1095 8.49687C20.2717 8.45341 20.4231 8.37823 20.5554 8.27615L19.9445 7.48447L19.3335 6.69279C19.4099 6.63388 19.4976 6.59029 19.5917 6.56505L19.8506 7.53096ZM19.9445 7.48447L20.5554 8.27615C20.6877 8.17409 20.7981 8.04723 20.8808 7.90323L20.0136 7.40519L19.1464 6.90715C19.1938 6.82467 19.2572 6.75169 19.3335 6.69279L19.9445 7.48447ZM20.0136 7.40519L20.8808 7.90323C20.9634 7.75928 21.017 7.60076 21.0388 7.43675L20.0475 7.3052L19.0561 7.17364C19.0685 7.08014 19.0991 6.98959 19.1464 6.90715L20.0136 7.40519ZM20.0475 7.3052L21.0388 7.43675C21.0605 7.27277 21.0501 7.10603 21.0081 6.94591L20.0409 7.19971L19.0736 7.45352C19.0496 7.36217 19.0437 7.26712 19.0561 7.17364L20.0475 7.3052ZM20.0409 7.19971L21.0082 6.94608C20.5576 5.2279 19.0121 4.01685 17.236 4.01685V5.01685V6.01685C18.0889 6.01685 18.8501 6.60107 19.0736 7.45335L20.0409 7.19971ZM17.236 5.01685V4.01685C15.0732 4.01685 13.3342 5.79144 13.3342 7.95116H14.3342H15.3342C15.3342 6.8749 16.1987 6.01685 17.236 6.01685V5.01685ZM14.3342 7.95116H13.3342C13.3342 10.1109 15.0732 11.8855 17.236 11.8855V10.8855V9.88548C16.1987 9.88548 15.3342 9.02742 15.3342 7.95116H14.3342ZM17.236 10.8855V11.8855C18.1312 11.8855 19.0034 11.5717 19.6959 11.0032L19.0614 10.2303L18.4269 9.45738C18.0901 9.73387 17.6658 9.88548 17.236 9.88548V10.8855ZM19.0614 10.2303L19.696 11.0032C20.3758 10.445 20.8533 9.6673 21.0434 8.80854L20.0671 8.59239L19.0907 8.37623C18.9974 8.79768 18.7606 9.18336 18.4269 9.4574L19.0614 10.2303ZM20.0671 8.59239L21.0434 8.80867C21.0792 8.64712 21.0832 8.48014 21.0551 8.31709L20.0696 8.48674L19.0841 8.65639C19.0681 8.56342 19.0703 8.46823 19.0908 8.37611L20.0671 8.59239ZM20.0696 8.48674L21.0551 8.31709C21.027 8.15405 20.9674 7.99768 20.8792 7.85695L20.0319 8.38816L19.1847 8.91938C19.1341 8.83873 19.1001 8.74934 19.0841 8.65639L20.0696 8.48674ZM20.0319 8.38816L20.8792 7.85695C20.7909 7.7162 20.6756 7.59366 20.5395 7.49679L19.9598 8.31167L19.3802 9.12655C19.3015 9.07061 19.2353 9.00006 19.1847 8.91938L20.0319 8.38816ZM19.9598 8.31167L20.5395 7.49679C20.4032 7.3999 20.2489 7.33068 20.0851 7.29359L19.8643 8.2689L19.6434 9.24421C19.5483 9.22267 19.4589 9.18252 19.3802 9.12655L19.9598 8.31167Z" fill="white" mask="url(#path-2-inside-2_305_1833)"/>
<path d="M11.6151 18.7256C11.7276 18.7256 11.829 18.6303 11.829 18.5029C11.8288 18.3757 11.7275 18.2812 11.6151 18.2812C11.5167 18.2813 11.4262 18.3536 11.4052 18.457L11.4012 18.5029L11.4052 18.5498C11.4263 18.6531 11.5168 18.7256 11.6151 18.7256ZM11.6151 18.7256V18.6836M11.6151 18.7256V18.6836M11.6151 18.6836C11.6891 18.6836 11.7531 18.6382 11.7802 18.5732L11.7938 18.5029C11.7937 18.4284 11.7485 18.3643 11.6844 18.3369L11.6151 18.3223C11.5168 18.3223 11.4366 18.4035 11.4364 18.5029L11.451 18.5732C11.4782 18.6381 11.5413 18.6836 11.6151 18.6836ZM5.62488 18.7256C5.73735 18.7256 5.83972 18.6303 5.83972 18.5029C5.83953 18.3757 5.73724 18.2812 5.62488 18.2812C5.52669 18.2815 5.43696 18.3538 5.41589 18.457L5.41101 18.5029L5.41589 18.5498C5.43705 18.6529 5.52677 18.7254 5.62488 18.7256ZM5.62488 18.7256V18.6836M5.62488 18.7256V18.6836M5.62488 18.6836C5.69883 18.6836 5.76283 18.6382 5.78992 18.5732L5.80359 18.5029C5.80345 18.4286 5.75896 18.3644 5.69519 18.3369L5.62488 18.3223C5.52672 18.3225 5.44733 18.4037 5.44714 18.5029L5.46082 18.5732C5.48786 18.638 5.55113 18.6834 5.62488 18.6836Z" fill="white" stroke="white"/>
</svg>
