<svg width="20" height="20" viewBox="0 0 20 20" fill="none" xmlns="http://www.w3.org/2000/svg">
<path d="M18.4262 15.2077L16.8535 3.21542C16.8531 3.2125 16.8524 3.20966 16.8519 3.20674C16.8513 3.20314 16.8507 3.19946 16.8499 3.19586C16.8489 3.19154 16.8477 3.18738 16.8465 3.18322C16.8457 3.1803 16.8449 3.17738 16.844 3.1745C16.8423 3.16958 16.8405 3.16473 16.8384 3.15994C16.8376 3.15794 16.8369 3.15586 16.836 3.15386C16.8334 3.1481 16.8305 3.14245 16.8274 3.13694C16.8269 3.13598 16.8264 3.13494 16.8259 3.13402C16.8183 3.12096 16.8094 3.10871 16.7994 3.09746L16.7989 3.09686C16.7977 3.09554 16.7963 3.09438 16.7951 3.0931C16.7915 3.08919 16.7877 3.08542 16.7838 3.08178C16.7816 3.07978 16.7794 3.07798 16.7771 3.0761C16.7737 3.0732 16.7702 3.0704 16.7667 3.0677C16.7643 3.06586 16.7617 3.06422 16.7592 3.0625C16.7556 3.05999 16.7519 3.05759 16.7481 3.0553C16.7394 3.05012 16.7303 3.04552 16.7209 3.04154C16.7094 3.03664 16.6975 3.03276 16.6853 3.02994C16.6779 3.02823 16.6705 3.02689 16.6631 3.02594C16.6607 3.02566 16.6585 3.02534 16.6561 3.02514C16.6511 3.0247 16.6461 3.02444 16.641 3.02434C16.6391 3.0243 16.6373 3.02402 16.6354 3.02402H14.3471C14.2409 2.33226 13.6416 1.80078 12.9206 1.80078C12.1996 1.80078 11.6003 2.33226 11.4941 3.02402H9.28061C9.17433 2.33226 8.57509 1.80078 7.85409 1.80078C7.13309 1.80078 6.53385 2.33226 6.42757 3.02402H4.90517C4.85082 3.02402 4.79839 3.04414 4.75799 3.0805C4.71759 3.11686 4.69208 3.16689 4.68637 3.22094L4.38357 6.08734L4.38353 6.0875L3.92797 10.3993C3.92185 10.4574 3.93902 10.5155 3.97573 10.5608C4.01243 10.6062 4.06565 10.6351 4.12367 10.6412C4.1817 10.6474 4.23979 10.6302 4.28516 10.5935C4.33052 10.5568 4.35945 10.5036 4.36557 10.4455L4.80037 6.32994H16.0237C16.0465 6.32994 16.0685 6.32646 16.0892 6.32002L15.1705 15.0164H13.3991C13.3407 15.0164 13.2847 15.0396 13.2435 15.0808C13.2022 15.1221 13.1791 15.178 13.1791 15.2364C13.1791 15.2947 13.2022 15.3507 13.2435 15.3919C13.2847 15.4332 13.3407 15.4564 13.3991 15.4564H18.2081C18.2394 15.4564 18.2704 15.4497 18.2989 15.4368C18.3274 15.4239 18.3528 15.405 18.3735 15.3815C18.3941 15.3579 18.4095 15.3303 18.4186 15.3003C18.4277 15.2703 18.4303 15.2388 18.4262 15.2077ZM16.6841 5.30734L16.6568 5.13494L16.6589 5.11534L16.6841 5.30734ZM16.0237 5.88994H4.84689L5.10317 3.46406H7.85413C7.91248 3.46406 7.96844 3.44088 8.0097 3.39962C8.05096 3.35837 8.07413 3.30241 8.07413 3.24406C8.07413 3.18571 8.05096 3.12976 8.0097 3.0885C7.96844 3.04724 7.91248 3.02406 7.85413 3.02406H6.87545C6.97605 2.57638 7.37649 2.24078 7.85413 2.24078C8.40733 2.24078 8.85741 2.69086 8.85741 3.24406C8.85741 3.79726 8.40733 4.2473 7.85413 4.2473C7.79579 4.2473 7.73983 4.27048 7.69857 4.31174C7.65731 4.353 7.63413 4.40895 7.63413 4.4673C7.63413 4.52565 7.65731 4.58161 7.69857 4.62286C7.73983 4.66412 7.79579 4.6873 7.85413 4.6873C8.57513 4.6873 9.17437 4.15582 9.28065 3.46406H12.9947C13.0531 3.46406 13.109 3.44088 13.1503 3.39962C13.1916 3.35837 13.2147 3.30241 13.2147 3.24406C13.2147 3.18571 13.1916 3.12976 13.1503 3.0885C13.109 3.04724 13.0531 3.02406 12.9947 3.02406H11.9419C12.0425 2.57638 12.443 2.24078 12.9206 2.24078C13.4738 2.24078 13.9239 2.69086 13.9239 3.24406C13.9239 3.79726 13.4739 4.2473 12.9206 4.2473C12.8623 4.2473 12.8063 4.27048 12.7651 4.31174C12.7238 4.353 12.7006 4.40895 12.7006 4.4673C12.7006 4.52565 12.7238 4.58161 12.7651 4.62286C12.8063 4.66412 12.8623 4.6873 12.9206 4.6873C13.6417 4.6873 14.2409 4.15582 14.3471 3.46406H16.3909L16.1317 5.91834C16.0988 5.89972 16.0616 5.88993 16.0238 5.88994H16.0237Z" fill="#203876"/>
<path d="M12.4996 8.64552H13.8999C13.9582 8.64552 14.0142 8.62234 14.0554 8.58108C14.0967 8.53982 14.1199 8.48386 14.1199 8.42552C14.1199 8.36717 14.0967 8.31121 14.0554 8.26995C14.0142 8.2287 13.9582 8.20552 13.8999 8.20552H12.4996C12.4413 8.20552 12.3853 8.2287 12.3441 8.26995C12.3028 8.31121 12.2796 8.36717 12.2796 8.42552C12.2796 8.48386 12.3028 8.53982 12.3441 8.58108C12.3853 8.62234 12.4413 8.64552 12.4996 8.64552ZM6.14478 8.64552H7.54502C7.60337 8.64552 7.65933 8.62234 7.70058 8.58108C7.74184 8.53982 7.76502 8.48386 7.76502 8.42552C7.76502 8.36717 7.74184 8.31121 7.70058 8.26995C7.65933 8.2287 7.60337 8.20552 7.54502 8.20552H6.14478C6.08643 8.20552 6.03048 8.2287 5.98922 8.26995C5.94796 8.31121 5.92478 8.36717 5.92478 8.42552C5.92478 8.48386 5.94796 8.53982 5.98922 8.58108C6.03048 8.62234 6.08643 8.64552 6.14478 8.64552ZM9.31142 8.64552H10.7117C10.77 8.64552 10.826 8.62234 10.8672 8.58108C10.9085 8.53982 10.9317 8.48386 10.9317 8.42552C10.9317 8.36717 10.9085 8.31121 10.8672 8.26995C10.826 8.2287 10.77 8.20552 10.7117 8.20552H9.31142C9.25307 8.20552 9.19712 8.2287 9.15586 8.26995C9.1146 8.31121 9.09142 8.36717 9.09142 8.42552C9.09142 8.48386 9.1146 8.53982 9.15586 8.58108C9.19712 8.62234 9.25307 8.64552 9.31142 8.64552ZM12.4996 10.8664H13.8999C13.9582 10.8664 14.0142 10.8433 14.0554 10.802C14.0967 10.7607 14.1199 10.7048 14.1199 10.6464C14.1199 10.5881 14.0967 10.5321 14.0554 10.4909C14.0142 10.4496 13.9582 10.4264 13.8999 10.4264H12.4996C12.4413 10.4264 12.3853 10.4496 12.3441 10.4909C12.3028 10.5321 12.2796 10.5881 12.2796 10.6464C12.2796 10.7048 12.3028 10.7607 12.3441 10.802C12.3853 10.8433 12.4413 10.8664 12.4996 10.8664ZM6.14478 10.8664H7.54502C7.60337 10.8664 7.65933 10.8433 7.70058 10.802C7.74184 10.7607 7.76502 10.7048 7.76502 10.6464C7.76502 10.5881 7.74184 10.5321 7.70058 10.4909C7.65933 10.4496 7.60337 10.4264 7.54502 10.4264H6.14478C6.08643 10.4264 6.03048 10.4496 5.98922 10.4909C5.94796 10.5321 5.92478 10.5881 5.92478 10.6464C5.92478 10.7048 5.94796 10.7607 5.98922 10.802C6.03048 10.8433 6.08643 10.8664 6.14478 10.8664ZM9.31142 10.8664H10.7117C10.77 10.8664 10.826 10.8433 10.8672 10.802C10.9085 10.7607 10.9317 10.7048 10.9317 10.6464C10.9317 10.5881 10.9085 10.5321 10.8672 10.4909C10.826 10.4496 10.77 10.4264 10.7117 10.4264H9.31142C9.25307 10.4264 9.19712 10.4496 9.15586 10.4909C9.1146 10.5321 9.09142 10.5881 9.09142 10.6464C9.09142 10.7048 9.1146 10.7607 9.15586 10.802C9.19712 10.8433 9.25307 10.8664 9.31142 10.8664ZM14.1199 12.8674C14.1199 12.809 14.0967 12.7531 14.0554 12.7118C14.0142 12.6706 13.9582 12.6474 13.8999 12.6474H12.4996C12.4413 12.6474 12.3853 12.6706 12.3441 12.7118C12.3028 12.7531 12.2796 12.809 12.2796 12.8674C12.2796 12.9257 12.3028 12.9817 12.3441 13.023C12.3853 13.0642 12.4413 13.0874 12.4996 13.0874H13.8999C13.9582 13.0874 14.0142 13.0642 14.0554 13.023C14.0967 12.9817 14.1199 12.9257 14.1199 12.8674ZM15.2625 4.28444C15.2505 4.27644 15.2377 4.26964 15.2245 4.26404C15.2111 4.25875 15.1974 4.25461 15.1833 4.25164C15.1406 4.24322 15.0964 4.24753 15.0561 4.26404C15.0295 4.27528 15.0052 4.29142 14.9845 4.31164C14.9643 4.3323 14.9481 4.35659 14.9369 4.38324C14.9317 4.39644 14.9273 4.41044 14.9245 4.42444C14.9217 4.43844 14.9201 4.45284 14.9201 4.46724C14.9201 4.48164 14.9217 4.49604 14.9245 4.51044C14.9273 4.52444 14.9317 4.53804 14.9369 4.55124C14.9425 4.56484 14.9493 4.57764 14.9573 4.58924C14.9653 4.60164 14.9745 4.61284 14.9845 4.62284C14.9949 4.63284 15.0061 4.64204 15.0181 4.65004C15.0301 4.65804 15.0429 4.66484 15.0561 4.67044C15.0693 4.67604 15.0833 4.68004 15.0973 4.68284C15.1113 4.68604 15.1261 4.68724 15.1401 4.68724C15.1981 4.68724 15.2549 4.66364 15.2957 4.62284C15.3369 4.58152 15.36 4.52558 15.3601 4.46724C15.3601 4.40964 15.3369 4.35284 15.2957 4.31164C15.2857 4.30164 15.2745 4.29244 15.2625 4.28444ZM6.2669 4.28444C6.243 4.26825 6.21605 4.25709 6.1877 4.25164C6.145 4.24321 6.10077 4.24752 6.0605 4.26404C6.0473 4.26964 6.0345 4.27644 6.0225 4.28444C6.0105 4.29244 5.9993 4.30164 5.9893 4.31164C5.94813 4.35296 5.92498 4.4089 5.9249 4.46724C5.9249 4.52524 5.9481 4.58164 5.9893 4.62284C6.02001 4.65351 6.05913 4.67438 6.1017 4.68284C6.1161 4.68564 6.1305 4.68724 6.1449 4.68724C6.1593 4.68724 6.1737 4.68564 6.1877 4.68284C6.2017 4.68004 6.2157 4.67604 6.2289 4.67044C6.2421 4.66484 6.2549 4.65804 6.2669 4.65004C6.2789 4.64204 6.2901 4.63284 6.3005 4.62284C6.34153 4.58142 6.36466 4.52554 6.3649 4.46724C6.3649 4.40924 6.3413 4.35284 6.3005 4.31164C6.2901 4.30164 6.2789 4.29244 6.2669 4.28444ZM12.4706 15.1956C12.4688 15.1852 12.4662 15.1749 12.4629 15.1648L12.4617 15.1613C12.4582 15.1513 12.454 15.1416 12.4491 15.1322L12.4483 15.1304C12.4433 15.1211 12.4375 15.1121 12.4311 15.1035C12.4305 15.1026 12.43 15.1016 12.4293 15.1007L10.9345 13.133C10.914 13.106 10.8875 13.0841 10.8571 13.069C10.8267 13.054 10.7933 13.0461 10.7593 13.0461H8.92018V11.735C8.92018 11.6766 8.897 11.6207 8.85574 11.5794C8.81449 11.5382 8.75853 11.515 8.70018 11.515H2.90406C2.84571 11.515 2.78976 11.5382 2.7485 11.5794C2.70724 11.6207 2.68406 11.6766 2.68406 11.735V12.7411H2.3085C2.25015 12.7411 2.1942 12.7643 2.15294 12.8055C2.11168 12.8468 2.0885 12.9027 2.0885 12.9611C2.0885 13.0194 2.11168 13.0754 2.15294 13.1166C2.1942 13.1579 2.25015 13.1811 2.3085 13.1811H2.68402V13.7325H1.79202C1.73367 13.7325 1.67772 13.7557 1.63646 13.797C1.5952 13.8382 1.57202 13.8942 1.57202 13.9525C1.57202 14.0109 1.5952 14.0668 1.63646 14.1081C1.67772 14.1493 1.73367 14.1725 1.79202 14.1725H2.68402V17.1862C2.68402 17.2445 2.7072 17.3005 2.74846 17.3417C2.78972 17.383 2.84567 17.4062 2.90402 17.4062H3.73034C3.83114 17.8594 4.23606 18.1993 4.71914 18.1993C5.20222 18.1993 5.60714 17.8593 5.70794 17.4061H9.24654C9.34734 17.8593 9.75226 18.1993 10.2353 18.1993C10.7185 18.1993 11.1234 17.8593 11.2241 17.4061H12.2541C12.3125 17.4061 12.3684 17.3829 12.4097 17.3417C12.451 17.3004 12.4741 17.2445 12.4741 17.1861V15.2338C12.4741 15.2229 12.4732 15.2121 12.4715 15.2014L12.4706 15.1956L12.4706 15.1956ZM3.1241 15.493V14.1725H3.92602C3.98437 14.1725 4.04033 14.1493 4.08158 14.108C4.12284 14.0668 4.14602 14.0108 4.14602 13.9525C4.14602 13.8941 4.12284 13.8382 4.08158 13.7969C4.04033 13.7557 3.98437 13.7325 3.92602 13.7325H3.1241V13.181H4.71918C4.77753 13.181 4.83349 13.1579 4.87474 13.1166C4.916 13.0753 4.93918 13.0194 4.93918 12.961C4.93918 12.9027 4.916 12.8467 4.87474 12.8055C4.83349 12.7642 4.77753 12.741 4.71918 12.741H3.12406V11.955H8.48018V15.5018H3.12406L3.1241 15.493ZM4.71918 17.7593C4.40318 17.7593 4.14602 17.5022 4.14602 17.1861C4.14602 16.87 4.40314 16.613 4.71918 16.613C5.03522 16.613 5.29234 16.8701 5.29234 17.1861C5.29234 17.5022 5.03522 17.7593 4.71914 17.7593H4.71918ZM10.2354 17.7593C9.91934 17.7593 9.66222 17.5022 9.66222 17.1861C9.66222 16.87 9.91934 16.613 10.2354 16.613C10.5514 16.613 10.8085 16.8701 10.8085 17.1861C10.8085 17.5022 10.5514 17.7593 10.2354 17.7593Z" fill="#203876"/>
</svg>
