<svg width="20" height="20" viewBox="0 0 20 20" fill="none" xmlns="http://www.w3.org/2000/svg">
<path d="M18.4262 15.2077L16.8535 3.21542C16.8531 3.2125 16.8524 3.20966 16.8519 3.20674C16.8513 3.20314 16.8507 3.19946 16.8499 3.19586C16.8489 3.19154 16.8477 3.18738 16.8465 3.18322C16.8457 3.1803 16.8449 3.17738 16.844 3.1745C16.8423 3.16958 16.8405 3.16473 16.8384 3.15994C16.8376 3.15794 16.8369 3.15586 16.836 3.15386C16.8334 3.1481 16.8305 3.14245 16.8274 3.13694C16.8269 3.13598 16.8264 3.13494 16.8259 3.13402C16.8183 3.12096 16.8094 3.10871 16.7994 3.09746L16.7989 3.09686C16.7977 3.09554 16.7963 3.09438 16.7951 3.0931C16.7915 3.08919 16.7877 3.08542 16.7838 3.08178C16.7816 3.07978 16.7794 3.07798 16.7771 3.0761C16.7737 3.0732 16.7702 3.0704 16.7667 3.0677C16.7643 3.06586 16.7617 3.06422 16.7592 3.0625C16.7556 3.05999 16.7519 3.05759 16.7481 3.0553C16.7394 3.05012 16.7303 3.04552 16.7209 3.04154C16.7094 3.03664 16.6975 3.03276 16.6853 3.02994C16.6779 3.02823 16.6705 3.02689 16.6631 3.02594C16.6607 3.02566 16.6585 3.02534 16.6561 3.02514C16.6511 3.0247 16.6461 3.02444 16.641 3.02434C16.6391 3.0243 16.6373 3.02402 16.6354 3.02402H14.3471C14.2409 2.33226 13.6416 1.80078 12.9206 1.80078C12.1996 1.80078 11.6003 2.33226 11.4941 3.02402H9.28061C9.17433 2.33226 8.57509 1.80078 7.85409 1.80078C7.13309 1.80078 6.53385 2.33226 6.42757 3.02402H4.90517C4.85082 3.02402 4.79839 3.04414 4.75799 3.0805C4.71759 3.11686 4.69208 3.16689 4.68637 3.22094L4.38357 6.08734L4.38353 6.0875L3.92797 10.3993C3.92185 10.4574 3.93902 10.5155 3.97573 10.5608C4.01243 10.6062 4.06565 10.6351 4.12367 10.6412C4.1817 10.6474 4.23979 10.6302 4.28516 10.5935C4.33052 10.5568 4.35945 10.5036 4.36557 10.4455L4.80037 6.32994H16.0237C16.0465 6.32994 16.0685 6.32646 16.0892 6.32002L15.1705 15.0164H13.3991C13.3407 15.0164 13.2847 15.0396 13.2435 15.0808C13.2022 15.1221 13.1791 15.178 13.1791 15.2364C13.1791 15.2947 13.2022 15.3507 13.2435 15.3919C13.2847 15.4332 13.3407 15.4564 13.3991 15.4564H18.2081C18.2394 15.4564 18.2704 15.4497 18.2989 15.4368C18.3274 15.4239 18.3528 15.405 18.3735 15.3815C18.3941 15.3579 18.4095 15.3303 18.4186 15.3003C18.4277 15.2703 18.4303 15.2388 18.4262 15.2077ZM16.6841 5.30734L16.6568 5.13494L16.6589 5.11534L16.6841 5.30734ZM16.0237 5.88994H4.84689L5.10317 3.46406H7.85413C7.91248 3.46406 7.96844 3.44088 8.0097 3.39962C8.05096 3.35837 8.07413 3.30241 8.07413 3.24406C8.07413 3.18571 8.05096 3.12976 8.0097 3.0885C7.96844 3.04724 7.91248 3.02406 7.85413 3.02406H6.87545C6.97605 2.57638 7.37649 2.24078 7.85413 2.24078C8.40733 2.24078 8.85741 2.69086 8.85741 3.24406C8.85741 3.79726 8.40733 4.2473 7.85413 4.2473C7.79579 4.2473 7.73983 4.27048 7.69857 4.31174C7.65731 4.353 7.63413 4.40895 7.63413 4.4673C7.63413 4.52565 7.65731 4.58161 7.69857 4.62286C7.73983 4.66412 7.79579 4.6873 7.85413 4.6873C8.57513 4.6873 9.17437 4.15582 9.28065 3.46406H12.9947C13.0531 3.46406 13.109 3.44088 13.1503 3.39962C13.1916 3.35837 13.2147 3.30241 13.2147 3.24406C13.2147 3.18571 13.1916 3.12976 13.1503 3.0885C13.109 3.04724 13.0531 3.02406 12.9947 3.02406H11.9419C12.0425 2.57638 12.443 2.24078 12.9206 2.24078C13.4738 2.24078 13.9239 2.69086 13.9239 3.24406C13.9239 3.79726 13.4739 4.2473 12.9206 4.2473C12.8623 4.2473 12.8063 4.27048 12.7651 4.31174C12.7238 4.353 12.7006 4.40895 12.7006 4.4673C12.7006 4.52565 12.7238 4.58161 12.7651 4.62286C12.8063 4.66412 12.8623 4.6873 12.9206 4.6873C13.6417 4.6873 14.2409 4.15582 14.3471 3.46406H16.3909L16.1317 5.91834C16.0988 5.89972 16.0616 5.88993 16.0238 5.88994H16.0237Z" fill="white"/>
<path d="M12.4995 8.64552H13.8997C13.9581 8.64552 14.014 8.62234 14.0553 8.58108C14.0966 8.53982 14.1197 8.48386 14.1197 8.42552C14.1197 8.36717 14.0966 8.31121 14.0553 8.26995C14.014 8.2287 13.9581 8.20552 13.8997 8.20552H12.4995C12.4412 8.20552 12.3852 8.2287 12.3439 8.26995C12.3027 8.31121 12.2795 8.36717 12.2795 8.42552C12.2795 8.48386 12.3027 8.53982 12.3439 8.58108C12.3852 8.62234 12.4412 8.64552 12.4995 8.64552ZM6.14466 8.64552H7.5449C7.60325 8.64552 7.6592 8.62234 7.70046 8.58108C7.74172 8.53982 7.7649 8.48386 7.7649 8.42552C7.7649 8.36717 7.74172 8.31121 7.70046 8.26995C7.6592 8.2287 7.60325 8.20552 7.5449 8.20552H6.14466C6.08631 8.20552 6.03035 8.2287 5.9891 8.26995C5.94784 8.31121 5.92466 8.36717 5.92466 8.42552C5.92466 8.48386 5.94784 8.53982 5.9891 8.58108C6.03035 8.62234 6.08631 8.64552 6.14466 8.64552ZM9.3113 8.64552H10.7115C10.7699 8.64552 10.8258 8.62234 10.8671 8.58108C10.9084 8.53982 10.9315 8.48386 10.9315 8.42552C10.9315 8.36717 10.9084 8.31121 10.8671 8.26995C10.8258 8.2287 10.7699 8.20552 10.7115 8.20552H9.3113C9.25295 8.20552 9.19699 8.2287 9.15574 8.26995C9.11448 8.31121 9.0913 8.36717 9.0913 8.42552C9.0913 8.48386 9.11448 8.53982 9.15574 8.58108C9.19699 8.62234 9.25295 8.64552 9.3113 8.64552ZM12.4995 10.8664H13.8997C13.9581 10.8664 14.014 10.8433 14.0553 10.802C14.0966 10.7607 14.1197 10.7048 14.1197 10.6464C14.1197 10.5881 14.0966 10.5321 14.0553 10.4909C14.014 10.4496 13.9581 10.4264 13.8997 10.4264H12.4995C12.4412 10.4264 12.3852 10.4496 12.3439 10.4909C12.3027 10.5321 12.2795 10.5881 12.2795 10.6464C12.2795 10.7048 12.3027 10.7607 12.3439 10.802C12.3852 10.8433 12.4412 10.8664 12.4995 10.8664ZM6.14466 10.8664H7.5449C7.60325 10.8664 7.6592 10.8433 7.70046 10.802C7.74172 10.7607 7.7649 10.7048 7.7649 10.6464C7.7649 10.5881 7.74172 10.5321 7.70046 10.4909C7.6592 10.4496 7.60325 10.4264 7.5449 10.4264H6.14466C6.08631 10.4264 6.03035 10.4496 5.9891 10.4909C5.94784 10.5321 5.92466 10.5881 5.92466 10.6464C5.92466 10.7048 5.94784 10.7607 5.9891 10.802C6.03035 10.8433 6.08631 10.8664 6.14466 10.8664ZM9.3113 10.8664H10.7115C10.7699 10.8664 10.8258 10.8433 10.8671 10.802C10.9084 10.7607 10.9315 10.7048 10.9315 10.6464C10.9315 10.5881 10.9084 10.5321 10.8671 10.4909C10.8258 10.4496 10.7699 10.4264 10.7115 10.4264H9.3113C9.25295 10.4264 9.19699 10.4496 9.15574 10.4909C9.11448 10.5321 9.0913 10.5881 9.0913 10.6464C9.0913 10.7048 9.11448 10.7607 9.15574 10.802C9.19699 10.8433 9.25295 10.8664 9.3113 10.8664ZM14.1197 12.8674C14.1197 12.809 14.0966 12.7531 14.0553 12.7118C14.014 12.6706 13.9581 12.6474 13.8997 12.6474H12.4995C12.4412 12.6474 12.3852 12.6706 12.3439 12.7118C12.3027 12.7531 12.2795 12.809 12.2795 12.8674C12.2795 12.9257 12.3027 12.9817 12.3439 13.023C12.3852 13.0642 12.4412 13.0874 12.4995 13.0874H13.8997C13.9581 13.0874 14.014 13.0642 14.0553 13.023C14.0966 12.9817 14.1197 12.9257 14.1197 12.8674ZM15.2624 4.28444C15.2504 4.27644 15.2376 4.26964 15.2244 4.26404C15.211 4.25875 15.1972 4.25461 15.1832 4.25164C15.1405 4.24322 15.0962 4.24753 15.056 4.26404C15.0293 4.27528 15.0051 4.29142 14.9844 4.31164C14.9642 4.3323 14.948 4.35659 14.9368 4.38324C14.9316 4.39644 14.9272 4.41044 14.9244 4.42444C14.9216 4.43844 14.92 4.45284 14.92 4.46724C14.92 4.48164 14.9216 4.49604 14.9244 4.51044C14.9272 4.52444 14.9316 4.53804 14.9368 4.55124C14.9424 4.56484 14.9492 4.57764 14.9572 4.58924C14.9652 4.60164 14.9744 4.61284 14.9844 4.62284C14.9948 4.63284 15.006 4.64204 15.018 4.65004C15.03 4.65804 15.0428 4.66484 15.056 4.67044C15.0692 4.67604 15.0832 4.68004 15.0972 4.68284C15.1112 4.68604 15.126 4.68724 15.14 4.68724C15.198 4.68724 15.2548 4.66364 15.2956 4.62284C15.3368 4.58152 15.3599 4.52558 15.36 4.46724C15.36 4.40964 15.3368 4.35284 15.2956 4.31164C15.2856 4.30164 15.2744 4.29244 15.2624 4.28444ZM6.26678 4.28444C6.24288 4.26825 6.21593 4.25709 6.18758 4.25164C6.14488 4.24321 6.10065 4.24752 6.06038 4.26404C6.04718 4.26964 6.03438 4.27644 6.02238 4.28444C6.01038 4.29244 5.99918 4.30164 5.98918 4.31164C5.94801 4.35296 5.92486 4.4089 5.92478 4.46724C5.92478 4.52524 5.94798 4.58164 5.98918 4.62284C6.01989 4.65351 6.05901 4.67438 6.10158 4.68284C6.11598 4.68564 6.13038 4.68724 6.14478 4.68724C6.15918 4.68724 6.17358 4.68564 6.18758 4.68284C6.20158 4.68004 6.21558 4.67604 6.22878 4.67044C6.24198 4.66484 6.25478 4.65804 6.26678 4.65004C6.27878 4.64204 6.28998 4.63284 6.30038 4.62284C6.34141 4.58142 6.36454 4.52554 6.36478 4.46724C6.36478 4.40924 6.34118 4.35284 6.30038 4.31164C6.28998 4.30164 6.27878 4.29244 6.26678 4.28444ZM12.4705 15.1956C12.4687 15.1852 12.4661 15.1749 12.4628 15.1648L12.4615 15.1613C12.4581 15.1513 12.4539 15.1416 12.449 15.1322L12.4482 15.1304C12.4431 15.1211 12.4374 15.1121 12.431 15.1035C12.4303 15.1026 12.4299 15.1016 12.4292 15.1007L10.9344 13.133C10.9139 13.106 10.8874 13.0841 10.857 13.069C10.8266 13.054 10.7931 13.0461 10.7592 13.0461H8.92006V11.735C8.92006 11.6766 8.89688 11.6207 8.85562 11.5794C8.81436 11.5382 8.75841 11.515 8.70006 11.515H2.90394C2.84559 11.515 2.78963 11.5382 2.74838 11.5794C2.70712 11.6207 2.68394 11.6766 2.68394 11.735V12.7411H2.30838C2.25003 12.7411 2.19407 12.7643 2.15282 12.8055C2.11156 12.8468 2.08838 12.9027 2.08838 12.9611C2.08838 13.0194 2.11156 13.0754 2.15282 13.1166C2.19407 13.1579 2.25003 13.1811 2.30838 13.1811H2.6839V13.7325H1.7919C1.73355 13.7325 1.67759 13.7557 1.63634 13.797C1.59508 13.8382 1.5719 13.8942 1.5719 13.9525C1.5719 14.0109 1.59508 14.0668 1.63634 14.1081C1.67759 14.1493 1.73355 14.1725 1.7919 14.1725H2.6839V17.1862C2.6839 17.2445 2.70708 17.3005 2.74834 17.3417C2.78959 17.383 2.84555 17.4062 2.9039 17.4062H3.73022C3.83102 17.8594 4.23594 18.1993 4.71902 18.1993C5.2021 18.1993 5.60702 17.8593 5.70782 17.4061H9.24642C9.34722 17.8593 9.75214 18.1993 10.2352 18.1993C10.7183 18.1993 11.1233 17.8593 11.224 17.4061H12.254C12.3124 17.4061 12.3683 17.3829 12.4096 17.3417C12.4508 17.3004 12.474 17.2445 12.474 17.1861V15.2338C12.4739 15.2229 12.4731 15.2121 12.4714 15.2014L12.4705 15.1956L12.4705 15.1956ZM3.12398 15.493V14.1725H3.9259C3.98425 14.1725 4.0402 14.1493 4.08146 14.108C4.12272 14.0668 4.1459 14.0108 4.1459 13.9525C4.1459 13.8941 4.12272 13.8382 4.08146 13.7969C4.0402 13.7557 3.98425 13.7325 3.9259 13.7325H3.12398V13.181H4.71906C4.77741 13.181 4.83336 13.1579 4.87462 13.1166C4.91588 13.0753 4.93906 13.0194 4.93906 12.961C4.93906 12.9027 4.91588 12.8467 4.87462 12.8055C4.83336 12.7642 4.77741 12.741 4.71906 12.741H3.12394V11.955H8.48006V15.5018H3.12394L3.12398 15.493ZM4.71906 17.7593C4.40306 17.7593 4.1459 17.5022 4.1459 17.1861C4.1459 16.87 4.40302 16.613 4.71906 16.613C5.0351 16.613 5.29222 16.8701 5.29222 17.1861C5.29222 17.5022 5.0351 17.7593 4.71902 17.7593H4.71906ZM10.2353 17.7593C9.91922 17.7593 9.6621 17.5022 9.6621 17.1861C9.6621 16.87 9.91922 16.613 10.2353 16.613C10.5513 16.613 10.8084 16.8701 10.8084 17.1861C10.8084 17.5022 10.5513 17.7593 10.2353 17.7593Z" fill="white"/>
</svg>
