<svg width="20" height="20" viewBox="0 0 20 20" fill="none" xmlns="http://www.w3.org/2000/svg">
<path d="M14.5437 13.813V8.1956C14.5415 7.48523 14.2583 6.80459 13.756 6.30228C13.2537 5.79997 12.573 5.51679 11.8626 5.51454H4.20249V4.79108C4.20247 3.74583 4.61594 2.74301 5.35265 2.00152C6.08936 1.26003 7.08948 0.840078 8.13471 0.833334H15.148C16.1977 0.833334 17.2043 1.25031 17.9466 1.99253C18.6888 2.73475 19.1058 3.74142 19.1058 4.79108V9.89785C19.1036 10.9387 18.6915 11.9368 17.9587 12.676C17.2259 13.4152 16.2314 13.8359 15.1906 13.8471L14.5437 13.813ZM11.8626 4.23785C12.9123 4.23785 13.919 4.65482 14.6612 5.39705C15.4034 6.13927 15.8204 7.14594 15.8204 8.1956V12.4512C16.3885 12.3041 16.8927 11.9747 17.2555 11.5134C17.6184 11.0522 17.8199 10.4846 17.8291 9.89785V4.79108C17.8268 4.08071 17.5436 3.40008 17.0413 2.89777C16.539 2.39546 15.8584 2.11227 15.148 2.11003H8.13471C7.51843 2.10927 6.92084 2.32152 6.44311 2.71084C5.96538 3.10016 5.63688 3.64262 5.51323 4.24636L11.8626 4.23785ZM8.356 19.1666C8.07793 19.168 7.80376 19.1012 7.55746 18.9721C7.31116 18.8431 7.10024 18.6556 6.94313 18.4262L6.17711 17.3452C6.15058 17.3044 6.11387 17.2711 6.07059 17.2487C6.02732 17.2263 5.97896 17.2156 5.93028 17.2176H4.89191C4.3686 17.2232 3.84937 17.125 3.36427 16.9286C2.87917 16.7322 2.43783 16.4416 2.0658 16.0735C1.69377 15.7054 1.39844 15.2672 1.19689 14.7843C0.995334 14.3013 0.891571 13.7832 0.891602 13.2598V8.1956C0.891571 7.67226 0.995334 7.15411 1.19689 6.67114C1.39844 6.18817 1.69377 5.74996 2.0658 5.38189C2.43783 5.01382 2.87917 4.72319 3.36427 4.52681C3.84937 4.33044 4.3686 4.23222 4.89191 4.23785H11.9052C12.9549 4.23785 13.9615 4.65482 14.7038 5.39705C15.446 6.13927 15.863 7.14594 15.863 8.1956V13.2598C15.863 14.3095 15.446 15.3161 14.7038 16.0584C13.9615 16.8006 12.9549 17.2176 11.9052 17.2176H10.7817C10.7332 17.2164 10.6851 17.2275 10.642 17.2498C10.5988 17.2721 10.562 17.3049 10.5349 17.3452L9.76887 18.4262C9.61176 18.6556 9.40084 18.8431 9.15454 18.9721C8.90824 19.1012 8.63407 19.168 8.356 19.1666ZM4.89191 5.51454C4.53657 5.51004 4.18386 5.576 3.85417 5.70862C3.52447 5.84123 3.22432 6.03787 2.97107 6.28717C2.71782 6.53646 2.51648 6.83347 2.37869 7.16104C2.2409 7.48861 2.16939 7.84023 2.16829 8.1956V13.2598C2.16598 13.6169 2.23504 13.9709 2.37142 14.301C2.50779 14.631 2.70874 14.9305 2.96245 15.1819C3.21617 15.4332 3.51754 15.6313 3.84887 15.7646C4.1802 15.8978 4.53482 15.9636 4.89191 15.9579H5.93028C6.18429 15.9566 6.43478 16.0172 6.66016 16.1343C6.88555 16.2515 7.07905 16.4217 7.224 16.6303L7.9815 17.6601C8.02371 17.7204 8.07975 17.7696 8.14492 17.8036C8.21008 17.8377 8.28247 17.8556 8.356 17.8559C8.42953 17.8556 8.50192 17.8377 8.56708 17.8036C8.63225 17.7696 8.68829 17.7204 8.7305 17.6601L9.488 16.5792C9.63851 16.38 9.83445 16.2197 10.0595 16.1116C10.2845 16.0036 10.5322 15.9508 10.7817 15.9579H11.8626C12.5737 15.9579 13.2556 15.6754 13.7584 15.1726C14.2612 14.6698 14.5437 13.9879 14.5437 13.2768V8.1956C14.5415 7.48523 14.2583 6.80459 13.756 6.30228C13.2537 5.79997 12.573 5.51679 11.8626 5.51454H4.89191ZM5.38556 9.99999C5.22732 9.99999 5.07264 10.0469 4.94107 10.1348C4.8095 10.2227 4.70696 10.3477 4.6464 10.4939C4.58585 10.6401 4.57 10.8009 4.60087 10.9561C4.63174 11.1113 4.70794 11.2539 4.81983 11.3658C4.93172 11.4777 5.07428 11.5539 5.22948 11.5847C5.38467 11.6156 5.54554 11.5998 5.69173 11.5392C5.83792 11.4787 5.96288 11.3761 6.05079 11.2445C6.1387 11.113 6.18562 10.9583 6.18562 10.8C6.18341 10.5885 6.0984 10.3863 5.94884 10.2368C5.79928 10.0872 5.59706 10.0022 5.38556 9.99999ZM8.36451 9.99999C8.20783 9.99698 8.05371 10.04 7.92129 10.1238C7.78887 10.2076 7.68398 10.3285 7.61963 10.4714C7.55528 10.6143 7.53431 10.7729 7.55933 10.9276C7.58434 11.0823 7.65424 11.2263 7.76034 11.3416C7.86644 11.4569 8.00408 11.5385 8.15616 11.5763C8.30824 11.6141 8.46808 11.6064 8.61583 11.5542C8.76357 11.502 8.89272 11.4075 8.98725 11.2825C9.08178 11.1575 9.13752 11.0075 9.14755 10.8511C9.15327 10.7435 9.13743 10.6359 9.10096 10.5345C9.06449 10.4331 9.00812 10.34 8.93517 10.2607C8.86222 10.1815 8.77416 10.1175 8.67616 10.0728C8.57817 10.028 8.47221 10.0032 8.36451 9.99999ZM11.335 9.99999C11.1767 9.99999 11.022 10.0469 10.8905 10.1348C10.7589 10.2227 10.6563 10.3477 10.5958 10.4939C10.5352 10.6401 10.5194 10.8009 10.5503 10.9561C10.5811 11.1113 10.6573 11.2539 10.7692 11.3658C10.8811 11.4777 11.0237 11.5539 11.1789 11.5847C11.3341 11.6156 11.4949 11.5998 11.6411 11.5392C11.7873 11.4787 11.9123 11.3761 12.0002 11.2445C12.0881 11.113 12.135 10.9583 12.135 10.8C12.1328 10.5885 12.0478 10.3863 11.8982 10.2368C11.7487 10.0872 11.5465 10.0022 11.335 9.99999Z" fill="#99A1B7"/>
</svg>
