<?xml version="1.0" encoding="UTF-8"?>
<svg version="1.1" xmlns="http://www.w3.org/2000/svg" width="512" height="512">
<path d="M0 0 C3.6571899 0.01139375 7.31408869 0.00461861 10.97126865 -0.00687885 C66.92821636 -0.15630475 66.92821636 -0.15630475 85.70410156 16.94824219 C100.07056344 32.16844872 100.71109318 54.72519515 100.69238281 74.39746094 C100.69628334 76.12938029 100.70062073 77.86129871 100.70536804 79.59321594 C100.7127822 83.20629997 100.71257498 86.81928622 100.70727539 90.43237305 C100.70149891 95.00968049 100.71839134 99.58658088 100.74162006 104.16382122 C100.75652195 107.73743438 100.75720686 111.31095332 100.75411034 114.88459206 C100.75461572 116.56949479 100.75970188 118.25440393 100.76992226 119.93927574 C100.81673659 128.73660204 100.46506789 137.26891531 99.04077148 145.96313477 C98.92237821 146.68586169 98.80398493 147.40858862 98.68200397 148.15321636 C96.26553405 161.51682513 89.94616925 174.051225 78.61035156 181.92089844 C46.71927376 201.1790669 -14.45741045 197.68500196 -50.04589844 190.20996094 C-60.43886262 187.44078298 -69.22832545 183.19432065 -76.60839844 175.26074219 C-77.08148438 174.80441406 -77.55457031 174.34808594 -78.04199219 173.87792969 C-85.34310618 166.33028457 -88.59122999 156.16938263 -90.23730469 146.01464844 C-90.3637738 145.23865295 -90.49024292 144.46265747 -90.62054443 143.66314697 C-91.9888678 134.63708917 -92.22507762 125.62511569 -92.35839844 116.51074219 C-92.37519653 115.61653564 -92.39199463 114.7223291 -92.40930176 113.80102539 C-92.6586155 100.451247 -92.64114751 87.10961747 -92.35839844 73.76074219 C-92.34578979 73.00152466 -92.33318115 72.24230713 -92.32019043 71.46008301 C-91.95569196 51.51712041 -90.12353203 31.13688925 -75.57714844 16.17089844 C-70.42321343 11.29825213 -65.16131061 7.94753873 -58.60839844 5.26074219 C-57.898125 4.96425781 -57.18785156 4.66777344 -56.45605469 4.36230469 C-38.96287054 -1.8479294 -18.31870279 -0.05763893 0 0 Z M-53.29589844 40.57324219 C-60.39558831 49.90264523 -59.18779169 65.64220896 -59.35839844 76.82324219 C-59.37552887 77.6790387 -59.3926593 78.53483521 -59.41030884 79.41656494 C-59.67184266 92.49446465 -59.61477697 105.55955887 -59.29589844 118.63574219 C-59.27058044 119.79470505 -59.27058044 119.79470505 -59.24475098 120.9770813 C-59.23603288 138.0191394 -59.23603288 138.0191394 -52.60839844 153.26074219 C-39.1734091 163.71017834 -14.33044755 160.42908447 1.70507812 160.39111328 C4.38970582 160.38574598 7.07416632 160.39110391 9.75878906 160.39746094 C36.83162161 161.85007842 36.83162161 161.85007842 61.39160156 153.26074219 C68.93065838 143.56766914 67.84126848 129.12184992 68.07910156 117.51074219 C68.09839722 116.66891388 68.11769287 115.82708557 68.13757324 114.95974731 C68.42862229 101.86792424 68.42011735 88.78995794 68.14160156 75.69824219 C68.12255264 74.52690735 68.12255264 74.52690735 68.1031189 73.33190918 C68.28381162 54.5375195 68.28381162 54.5375195 60.25488281 38.52246094 C50.18972245 31.7068492 35.88795923 33.09836868 24.31738281 33.09277344 C22.74570181 33.08955328 21.1740211 33.08618866 19.6023407 33.08268738 C16.31504625 33.07672007 13.02777799 33.07484492 9.74047852 33.07543945 C5.56282017 33.07554076 1.38533297 33.06191013 -2.79228497 33.04466724 C-6.03799688 33.03345441 -9.28366868 33.03152309 -12.52939796 33.03204918 C-14.0677124 33.03088217 -15.60602833 33.02653383 -17.14432335 33.01871681 C-36.48389898 32.53142676 -36.48389898 32.53142676 -53.29589844 40.57324219 Z " fill="#FFFFFF" transform="translate(363.6083984375,271.7392578125)"/>
<path d="M0 0 C3.6571899 0.01139375 7.31408869 0.00461861 10.97126865 -0.00687885 C66.92821636 -0.15630475 66.92821636 -0.15630475 85.70410156 16.94824219 C100.07056344 32.16844872 100.71109318 54.72519515 100.69238281 74.39746094 C100.69628334 76.12938029 100.70062073 77.86129871 100.70536804 79.59321594 C100.7127822 83.20629997 100.71257498 86.81928622 100.70727539 90.43237305 C100.70149891 95.00968049 100.71839134 99.58658088 100.74162006 104.16382122 C100.75652195 107.73743438 100.75720686 111.31095332 100.75411034 114.88459206 C100.75461572 116.56949479 100.75970188 118.25440393 100.76992226 119.93927574 C100.81673659 128.73660204 100.46506789 137.26891531 99.04077148 145.96313477 C98.92237821 146.68586169 98.80398493 147.40858862 98.68200397 148.15321636 C96.26553405 161.51682513 89.94616925 174.051225 78.61035156 181.92089844 C46.71927376 201.1790669 -14.45741045 197.68500196 -50.04589844 190.20996094 C-57.856499 188.12884697 -65.14477611 185.14787126 -71.60839844 180.26074219 C-72.43339844 179.68324219 -73.25839844 179.10574219 -74.10839844 178.51074219 C-83.53216263 170.02935442 -88.25462739 158.25634901 -90.25927734 145.94824219 C-90.38645456 145.16969879 -90.51363178 144.3911554 -90.64466286 143.58901978 C-91.95198438 134.9401192 -92.04396887 126.36543947 -92.00683594 117.63574219 C-92.00886657 115.91096881 -92.01178611 114.18619628 -92.01553345 112.46142578 C-92.01991046 108.87817058 -92.01367746 105.29514247 -91.99951172 101.71191406 C-91.98242268 97.17395941 -91.99228909 92.63653752 -92.01022911 88.09860229 C-92.02119363 84.54642902 -92.0175634 80.99437712 -92.00984573 77.44219971 C-92.00787848 75.7712599 -92.01017689 74.10030818 -92.01728439 72.42938232 C-92.08473609 52.12904097 -90.41261555 31.43431172 -75.57714844 16.17089844 C-70.42321343 11.29825213 -65.16131061 7.94753873 -58.60839844 5.26074219 C-57.898125 4.96425781 -57.18785156 4.66777344 -56.45605469 4.36230469 C-38.96287054 -1.8479294 -18.31870279 -0.05763893 0 0 Z M-53.29589844 40.57324219 C-60.39558831 49.90264523 -59.18779169 65.64220896 -59.35839844 76.82324219 C-59.37552887 77.6790387 -59.3926593 78.53483521 -59.41030884 79.41656494 C-59.67184266 92.49446465 -59.61477697 105.55955887 -59.29589844 118.63574219 C-59.27058044 119.79470505 -59.27058044 119.79470505 -59.24475098 120.9770813 C-59.23603288 138.0191394 -59.23603288 138.0191394 -52.60839844 153.26074219 C-39.1734091 163.71017834 -14.33044755 160.42908447 1.70507812 160.39111328 C4.38970582 160.38574598 7.07416632 160.39110391 9.75878906 160.39746094 C36.83162161 161.85007842 36.83162161 161.85007842 61.39160156 153.26074219 C68.93065838 143.56766914 67.84126848 129.12184992 68.07910156 117.51074219 C68.09839722 116.66891388 68.11769287 115.82708557 68.13757324 114.95974731 C68.42862229 101.86792424 68.42011735 88.78995794 68.14160156 75.69824219 C68.12255264 74.52690735 68.12255264 74.52690735 68.1031189 73.33190918 C68.28381162 54.5375195 68.28381162 54.5375195 60.25488281 38.52246094 C50.18972245 31.7068492 35.88795923 33.09836868 24.31738281 33.09277344 C22.74570181 33.08955328 21.1740211 33.08618866 19.6023407 33.08268738 C16.31504625 33.07672007 13.02777799 33.07484492 9.74047852 33.07543945 C5.56282017 33.07554076 1.38533297 33.06191013 -2.79228497 33.04466724 C-6.03799688 33.03345441 -9.28366868 33.03152309 -12.52939796 33.03204918 C-14.0677124 33.03088217 -15.60602833 33.02653383 -17.14432335 33.01871681 C-36.48389898 32.53142676 -36.48389898 32.53142676 -53.29589844 40.57324219 Z " fill="#FFFFFF" transform="translate(139.6083984375,271.7392578125)"/>
<path d="M0 0 C4.24570668 0.01709107 8.49084951 0.00692341 12.73653698 -0.01030254 C68.01249574 -0.20155555 68.01249574 -0.20155555 85.72363281 16.14111328 C100.34491067 32.16308498 101.41892511 54.01116745 101.39941406 74.56298828 C101.40331425 76.29730326 101.40765157 78.03161731 101.41239929 79.76593018 C101.41981286 83.38321034 101.41960636 87.00039282 101.41430664 90.61767578 C101.40852575 95.20404927 101.42543356 99.7900171 101.44865131 104.3763237 C101.4635393 107.95418551 101.46424001 111.53195308 101.46114159 115.10984039 C101.46164751 116.79836071 101.46674443 118.48688736 101.47695351 120.17537689 C101.58336748 140.23520659 99.73025042 161.41941366 85.06738281 176.47705078 C72.7473865 188.14634306 55.67977458 192.50711658 38.9921875 192.56811523 C38.20092468 192.57468643 37.40966187 192.58125763 36.59442139 192.58802795 C33.98644897 192.60766478 31.37853419 192.61940854 28.77050781 192.62939453 C27.87174171 192.63347006 26.97297562 192.63754559 26.04697418 192.64174461 C21.28001642 192.66257496 16.5130871 192.67688392 11.74609375 192.6862793 C6.87146801 192.69727454 1.99730747 192.73160263 -2.8771553 192.771451 C-6.66608401 192.79787137 -10.45490671 192.80599389 -14.24391937 192.80956078 C-16.0376979 192.81436969 -17.83147359 192.8258161 -19.62516022 192.84459877 C-38.26507242 193.02749276 -58.25119503 191.02268134 -72.90136719 178.39111328 C-73.50851562 177.88966797 -74.11566406 177.38822266 -74.74121094 176.87158203 C-86.30767471 166.4693575 -89.99482121 149.16757459 -91.05303955 134.25350952 C-91.35744402 128.49046884 -91.47862402 122.72309334 -91.58886719 116.95361328 C-91.60816284 116.04691895 -91.6274585 115.14022461 -91.64733887 114.20605469 C-91.92500454 100.7630441 -91.94234477 87.33373003 -91.65136719 73.89111328 C-91.63866791 73.13234894 -91.62596863 72.37358459 -91.61288452 71.59182739 C-91.27042702 52.83952995 -89.78104578 33.08873694 -76.90136719 18.39111328 C-76.36253906 17.72466797 -75.82371094 17.05822266 -75.26855469 16.37158203 C-57.36527153 -3.89555454 -24.39510998 -0.09903307 0 0 Z M-17.33886719 32.70361328 C-18.49462753 32.72906723 -18.49462753 32.72906723 -19.67373657 32.7550354 C-36.68703316 32.76950739 -36.68703316 32.76950739 -51.90136719 39.39111328 C-59.61858457 49.31324991 -58.35972868 64.34473829 -58.58886719 76.20361328 C-58.60816284 77.09407349 -58.6274585 77.98453369 -58.64733887 78.90197754 C-58.92656349 92.15304532 -58.94207458 105.39042751 -58.65136719 118.64111328 C-58.63866791 119.39881012 -58.62596863 120.15650696 -58.61288452 120.93716431 C-58.36072176 137.96840186 -58.36072176 137.96840186 -51.90136719 153.39111328 C-38.30693951 163.78315846 -13.72066832 160.55968585 2.41210938 160.52148438 C5.09673707 160.51611707 7.78119757 160.521475 10.46582031 160.52783203 C37.53865286 161.98044952 37.53865286 161.98044952 62.09863281 153.39111328 C69.74762766 143.55669134 68.55105174 128.84619953 68.78613281 117.07861328 C68.8057608 116.2124942 68.82538879 115.34637512 68.84561157 114.45401001 C69.13575727 101.32202488 69.11344148 88.20941748 68.78613281 75.07861328 C68.76916351 74.31060394 68.75219421 73.5425946 68.73471069 72.75131226 C68.82901148 55.12604495 68.82901148 55.12604495 62.09863281 39.39111328 C52.15731074 31.68198621 37.15861487 32.93431839 25.28613281 32.70361328 C24.39666962 32.68398529 23.50720642 32.6643573 22.59078979 32.64413452 C9.27411556 32.35736959 -4.02345411 32.37207605 -17.33886719 32.70361328 Z " fill="#FFFFFF" transform="translate(362.9013671875,47.60888671875)"/>
<path d="M0 0 C4.24570668 0.01709107 8.49084951 0.00692341 12.73653698 -0.01030254 C68.01249574 -0.20155555 68.01249574 -0.20155555 85.72363281 16.14111328 C100.34491067 32.16308498 101.41892511 54.01116745 101.39941406 74.56298828 C101.40331425 76.29730326 101.40765157 78.03161731 101.41239929 79.76593018 C101.41981286 83.38321034 101.41960636 87.00039282 101.41430664 90.61767578 C101.40852575 95.20404927 101.42543356 99.7900171 101.44865131 104.3763237 C101.4635393 107.95418551 101.46424001 111.53195308 101.46114159 115.10984039 C101.46164751 116.79836071 101.46674443 118.48688736 101.47695351 120.17537689 C101.58336748 140.23520659 99.73025042 161.41941366 85.06738281 176.47705078 C72.7473865 188.14634306 55.67977458 192.50711658 38.9921875 192.56811523 C38.20092468 192.57468643 37.40966187 192.58125763 36.59442139 192.58802795 C33.98644897 192.60766478 31.37853419 192.61940854 28.77050781 192.62939453 C27.87174171 192.63347006 26.97297562 192.63754559 26.04697418 192.64174461 C21.28001642 192.66257496 16.5130871 192.67688392 11.74609375 192.6862793 C6.87146801 192.69727454 1.99730747 192.73160263 -2.8771553 192.771451 C-6.66608401 192.79787137 -10.45490671 192.80599389 -14.24391937 192.80956078 C-16.0376979 192.81436969 -17.83147359 192.8258161 -19.62516022 192.84459877 C-38.26507242 193.02749276 -58.25119503 191.02268134 -72.90136719 178.39111328 C-73.50851563 177.88966797 -74.11566406 177.38822266 -74.74121094 176.87158203 C-86.18678948 166.57807485 -90.15259158 149.18751273 -91.01993179 134.36487198 C-91.2142318 128.99611768 -91.20725737 123.62597507 -91.20214844 118.25439453 C-91.20604897 116.52247518 -91.21038635 114.79055676 -91.21513367 113.05863953 C-91.22254783 109.4455555 -91.2223406 105.83256925 -91.21704102 102.21948242 C-91.21126453 97.64217498 -91.22815696 93.06527459 -91.25138569 88.48803425 C-91.26628757 84.91442109 -91.26697248 81.34090215 -91.26387596 77.76726341 C-91.26438134 76.08236068 -91.2694675 74.39745153 -91.27968788 72.71257973 C-91.38168724 53.54490942 -90.10123469 33.45411998 -76.90136719 18.39111328 C-76.36253906 17.72466797 -75.82371094 17.05822266 -75.26855469 16.37158203 C-57.36527153 -3.89555454 -24.39510998 -0.09903307 0 0 Z M-17.33886719 32.70361328 C-18.49462753 32.72906723 -18.49462753 32.72906723 -19.67373657 32.7550354 C-36.68703316 32.76950739 -36.68703316 32.76950739 -51.90136719 39.39111328 C-59.61858457 49.31324991 -58.35972868 64.34473829 -58.58886719 76.20361328 C-58.60816284 77.09407349 -58.6274585 77.98453369 -58.64733887 78.90197754 C-58.92656349 92.15304532 -58.94207458 105.39042751 -58.65136719 118.64111328 C-58.63866791 119.39881012 -58.62596863 120.15650696 -58.61288452 120.93716431 C-58.36072176 137.96840186 -58.36072176 137.96840186 -51.90136719 153.39111328 C-38.30693951 163.78315846 -13.72066832 160.55968585 2.41210938 160.52148438 C5.09673707 160.51611707 7.78119757 160.521475 10.46582031 160.52783203 C37.53865286 161.98044952 37.53865286 161.98044952 62.09863281 153.39111328 C69.74762766 143.55669134 68.55105174 128.84619953 68.78613281 117.07861328 C68.8057608 116.2124942 68.82538879 115.34637512 68.84561157 114.45401001 C69.13575727 101.32202488 69.11344148 88.20941748 68.78613281 75.07861328 C68.76916351 74.31060394 68.75219421 73.5425946 68.73471069 72.75131226 C68.82901148 55.12604495 68.82901148 55.12604495 62.09863281 39.39111328 C52.15731074 31.68198621 37.15861487 32.93431839 25.28613281 32.70361328 C24.39666962 32.68398529 23.50720642 32.6643573 22.59078979 32.64413452 C9.27411556 32.35736959 -4.02345411 32.37207605 -17.33886719 32.70361328 Z " fill="#FFFFFF" transform="translate(138.9013671875,47.60888671875)"/>
</svg>
