<svg width="20" height="20" viewBox="0 0 20 20" fill="none" xmlns="http://www.w3.org/2000/svg">
<path opacity="0.1" d="M18.4494 4.43588C18.1491 3.87876 17.7432 3.38778 17.2551 2.99136C16.767 2.59494 16.2065 2.30097 15.606 2.12644L12.7376 1.28049C11.7932 0.995384 10.7846 1.0201 9.85487 1.35112C8.92511 1.68215 8.12142 2.30267 7.55782 3.12466C7.42614 3.14559 7.29569 3.17383 7.16705 3.20925L4.30696 4.0552C3.09984 4.42507 2.08601 5.26667 1.48759 6.39564C0.889164 7.5246 0.75493 8.84888 1.11429 10.0784L2.66074 15.374C2.83892 15.9835 3.13344 16.5514 3.52747 17.045C3.92149 17.5387 4.40729 17.9485 4.95708 18.251C5.50688 18.5534 6.10988 18.7427 6.73161 18.8079C7.35334 18.8731 7.9816 18.8129 8.58046 18.6309L11.4406 17.7849C12.0442 17.6172 12.6093 17.3297 13.1034 16.939C14.0845 16.8793 15.0234 16.5123 15.7915 15.8883C16.5595 15.2643 17.1191 14.4139 17.3935 13.4537L18.8901 8.16651C19.0686 7.5467 19.1217 6.89647 19.0459 6.2552C18.9702 5.61393 18.7672 4.99499 18.4494 4.43588Z" fill="white"/>
<path d="M9.85506 1.31146C10.7935 0.977348 11.812 0.952437 12.7652 1.24018L15.6607 2.09467C16.2667 2.27082 16.8322 2.56767 17.3248 2.96771C17.8174 3.36785 18.2277 3.86337 18.5308 4.42572C18.8515 4.98993 19.0559 5.61456 19.1324 6.26166C19.2089 6.90895 19.1554 7.56572 18.9752 8.19135L17.4644 13.5283C17.1875 14.4973 16.6232 15.3555 15.8482 15.9853C15.073 16.6151 14.1247 16.9856 13.1344 17.0458C12.6356 17.4402 12.065 17.731 11.4556 17.9003L8.56892 18.7538C7.96447 18.9376 7.33024 18.9984 6.70271 18.9326C6.0752 18.8667 5.4666 18.6754 4.9117 18.3701C4.35681 18.0647 3.86603 17.6515 3.46834 17.1533C3.07069 16.655 2.77318 16.0819 2.59334 15.4667L1.03279 10.121C0.670107 8.88014 0.805842 7.54372 1.40974 6.40424C2.01379 5.26467 3.037 4.4143 4.25545 4.04096L7.14217 3.18744C7.27195 3.15171 7.40386 3.12361 7.5367 3.10248C8.10555 2.27284 8.91666 1.64562 9.85506 1.31146ZM4.61678 5.29682C4.17121 5.43174 3.75578 5.65464 3.3951 5.95307C3.03443 6.25154 2.73487 6.61971 2.51424 7.03607C2.29366 7.45242 2.15581 7.90925 2.10896 8.37982C2.06216 8.85051 2.10762 9.32627 2.24178 9.77924L3.80232 15.1249C4.07565 16.0362 4.69258 16.8003 5.51814 17.2499C6.34386 17.6996 7.3116 17.7984 8.20857 17.5244L11.0025 16.6962L8.57771 15.9785C7.97047 15.8008 7.40334 15.5028 6.90974 15.1015C6.41637 14.7003 6.00587 14.2038 5.70174 13.6406C5.39754 13.0771 5.20541 12.4574 5.13728 11.8183C5.0692 11.1793 5.12589 10.5326 5.30428 9.91596L6.80623 4.6308L4.61678 5.29682ZM11.3892 2.3681C10.6348 2.37669 9.90204 2.62916 9.29842 3.08978C8.69483 3.55041 8.25116 4.19511 8.03182 4.92963L6.52107 10.2665C6.39145 10.7211 6.35163 11.1974 6.40291 11.6679C6.4542 12.1384 6.59553 12.5941 6.8199 13.0087C7.04433 13.4234 7.34717 13.7892 7.71053 14.0849C8.0739 14.3806 8.49113 14.6008 8.93807 14.7324L11.8336 15.5859C12.7362 15.85 13.7053 15.7393 14.5279 15.2783C14.9341 15.0514 15.2916 14.7442 15.5797 14.3749C15.8678 14.0055 16.0807 13.5811 16.2056 13.1269L17.7252 7.78998L17.692 7.83295C17.8216 7.37839 17.8614 6.90202 17.8101 6.43158C17.7588 5.961 17.6166 5.50453 17.3922 5.08978C17.1677 4.67524 16.8658 4.3092 16.5025 4.01361C16.1392 3.71803 15.7218 3.49872 15.275 3.36713L12.3795 2.51264C12.0578 2.41729 11.7243 2.36906 11.3892 2.3681ZM9.95369 10.0615L12.2955 10.6845C12.4512 10.7269 12.5852 10.8289 12.6695 10.9687C12.7537 11.1084 12.782 11.2761 12.7486 11.4365C12.7095 11.5718 12.6292 11.6914 12.5191 11.7773C12.409 11.8632 12.2741 11.9107 12.1353 11.914H11.9762L9.64314 11.291C9.56373 11.271 9.48922 11.2349 9.42342 11.1855C9.35759 11.136 9.30147 11.0743 9.25935 11.0029C9.21724 10.9314 9.18925 10.8519 9.17732 10.7695C9.16543 10.6871 9.16995 10.6031 9.19002 10.5224C9.23153 10.3586 9.33517 10.2182 9.4781 10.1318C9.6212 10.0454 9.79236 10.02 9.95369 10.0615ZM10.8179 6.71381L14.7623 7.74701C14.9188 7.79469 15.0516 7.90279 15.1314 8.04779C15.2112 8.19276 15.2317 8.3637 15.19 8.52435C15.1521 8.66048 15.0728 8.78099 14.9625 8.86713C14.8521 8.95328 14.7168 9.00088 14.5777 9.00287H14.4185L10.4742 7.97846C10.3209 7.92246 10.1938 7.80916 10.1187 7.66205C10.0437 7.51472 10.0264 7.34343 10.0699 7.18353C10.1134 7.02381 10.2145 6.88678 10.3531 6.79975C10.4919 6.71273 10.6581 6.6816 10.8179 6.71381Z" fill="white"/>
</svg>
