<svg width="20" height="20" viewBox="0 0 20 20" fill="none" xmlns="http://www.w3.org/2000/svg">
<g id="Frame">
<path id="Vector" d="M17.2425 4.60538L10.3043 1.72728C10.1089 1.64625 9.89108 1.64625 9.69567 1.72728L2.75752 4.60538C2.41416 4.74781 2.41416 5.25186 2.75752 5.3943L9.69567 8.2724C9.89108 8.35342 10.1089 8.35342 10.3043 8.2724L17.2425 5.3943C17.5858 5.25186 17.5858 4.74781 17.2425 4.60538Z" stroke="#203876" stroke-width="1.25" stroke-linecap="round" stroke-linejoin="round"/>
<path id="Vector_2" d="M17.5 5V15.0027C17.4991 15.1634 17.4132 15.3237 17.2425 15.3945L10.3043 18.2726C10.2067 18.3131 10.1033 18.3333 9.99999 18.3333M9.99999 18.3333C9.89666 18.3333 9.79341 18.3131 9.69566 18.2726L2.75752 15.3945C2.58678 15.3237 2.50094 15.1634 2.5 15.0027V5M9.99999 18.3333V8.33333" stroke="#203876" stroke-width="1.25" stroke-linecap="round" stroke-linejoin="round"/>
<path id="Vector_3" d="M6.25 8.74875V6.66541L13.75 3.3335" stroke="#203876" stroke-width="1.25" stroke-linecap="round" stroke-linejoin="round"/>
<path id="Vector_4" d="M4.58331 13.3335V10.8335L7.49998 12.0835V14.5835L4.58331 13.3335Z" stroke="#203876" stroke-width="1.25" stroke-linecap="round" stroke-linejoin="round"/>
</g>
</svg>
