<svg width="20" height="20" viewBox="0 0 20 20" fill="none" xmlns="http://www.w3.org/2000/svg">
<path d="M17.2425 4.60553L10.3043 1.72743C10.1089 1.6464 9.89108 1.6464 9.69567 1.72743L2.75752 4.60553C2.41416 4.74796 2.41416 5.25201 2.75752 5.39445L9.69567 8.27255C9.89108 8.35357 10.1089 8.35357 10.3043 8.27255L17.2425 5.39445C17.5858 5.25201 17.5858 4.74796 17.2425 4.60553Z" stroke="white" stroke-width="1.25" stroke-linecap="round" stroke-linejoin="round"/>
<path d="M17.5 5V15.0027C17.4991 15.1634 17.4132 15.3237 17.2425 15.3945L10.3043 18.2726C10.2067 18.3131 10.1033 18.3333 9.99999 18.3333M9.99999 18.3333C9.89666 18.3333 9.79341 18.3131 9.69566 18.2726L2.75752 15.3945C2.58678 15.3237 2.50094 15.1634 2.5 15.0027V5M9.99999 18.3333V8.33333" stroke="white" stroke-width="1.25" stroke-linecap="round" stroke-linejoin="round"/>
<path d="M6.25 8.74859V6.66526L13.75 3.33334" stroke="white" stroke-width="1.25" stroke-linecap="round" stroke-linejoin="round"/>
<path d="M4.58325 13.3333V10.8333L7.49992 12.0833V14.5833L4.58325 13.3333Z" stroke="white" stroke-width="1.25" stroke-linecap="round" stroke-linejoin="round"/>
</svg>
