<svg width="20" height="20" viewBox="0 0 20 20" fill="none" xmlns="http://www.w3.org/2000/svg">
<g id="Frame">
<path id="Vector" d="M2.08331 10.0001C2.08331 6.2682 2.08331 4.40223 3.24268 3.24286C4.40205 2.0835 6.26803 2.0835 9.99998 2.0835C13.7319 2.0835 15.5979 2.0835 16.7573 3.24286C17.9166 4.40223 17.9166 6.2682 17.9166 10.0001C17.9166 13.7321 17.9166 15.5981 16.7573 16.7575C15.5979 17.9168 13.7319 17.9168 9.99998 17.9168C6.26803 17.9168 4.40205 17.9168 3.24268 16.7575C2.08331 15.5981 2.08331 13.7321 2.08331 10.0001Z" stroke="white" stroke-width="1.25"/>
<path id="Vector_2" d="M2.08331 7.5H17.9166" stroke="white" stroke-width="1.25" stroke-linejoin="round"/>
<path id="Vector_3" d="M5.83319 5H5.84067" stroke="white" stroke-width="1.25" stroke-linecap="round" stroke-linejoin="round"/>
<path id="Vector_4" d="M9.1665 5H9.174" stroke="white" stroke-width="1.25" stroke-linecap="round" stroke-linejoin="round"/>
<path id="Vector_5" d="M14.1666 14.1667C14.1666 11.8655 12.3011 10 9.99998 10C7.6988 10 5.83331 11.8655 5.83331 14.1667" stroke="white" stroke-width="1.25" stroke-linecap="round"/>
<path id="Vector_6" d="M10.5891 12.7441L9.41064 13.9226" stroke="white" stroke-width="1.25" stroke-linecap="round" stroke-linejoin="round"/>
</g>
</svg>
