<svg width="20" height="20" viewBox="0 0 20 20" fill="none" xmlns="http://www.w3.org/2000/svg">
<path d="M6.66663 14.1667H13.3333" stroke="white" stroke-width="1.25" stroke-linecap="round" stroke-linejoin="round"/>
<path d="M6.66663 10.8333H9.99996" stroke="white" stroke-width="1.25" stroke-linecap="round" stroke-linejoin="round"/>
<path d="M10.8334 2.08341V2.50008C10.8334 4.85711 10.8334 6.03561 11.5656 6.76785C12.2979 7.50008 13.4764 7.50008 15.8334 7.50008H16.25M16.6667 8.88083V11.6667C16.6667 14.8094 16.6667 16.3808 15.6904 17.3571C14.7141 18.3334 13.1427 18.3334 10 18.3334C6.85734 18.3334 5.286 18.3334 4.30968 17.3571C3.33337 16.3808 3.33337 14.8094 3.33337 11.6667V7.87995C3.33337 5.17576 3.33337 3.82367 4.07177 2.90786C4.22094 2.72284 4.38947 2.55431 4.57448 2.40514C5.4903 1.66675 6.84239 1.66675 9.54654 1.66675C10.1345 1.66675 10.4285 1.66675 10.6977 1.76176C10.7537 1.78151 10.8085 1.80425 10.8621 1.82987C11.1197 1.95304 11.3275 2.16091 11.7433 2.57665L15.6904 6.52377C16.1721 7.00549 16.413 7.24635 16.5399 7.55263C16.6667 7.85891 16.6667 8.19954 16.6667 8.88083Z" stroke="white" stroke-width="1.25" stroke-linecap="round" stroke-linejoin="round"/>
</svg>
