<svg width="20" height="20" viewBox="0 0 20 20" fill="none" xmlns="http://www.w3.org/2000/svg">
<path d="M10 16.6667C10 16.6667 10.8333 16.6667 11.6667 18.3334C11.6667 18.3334 14.3137 14.1667 16.6667 13.3334" stroke="white" stroke-width="1.25" stroke-linecap="round" stroke-linejoin="round"/>
<path d="M16.6666 10.8373V8.88379C16.6666 8.20226 16.6666 7.86148 16.5398 7.55507C16.4128 7.24865 16.172 7.00768 15.6903 6.52576L11.7432 2.57693C11.3274 2.161 11.1196 1.95304 10.862 1.82982C10.8084 1.80419 10.7536 1.78144 10.6976 1.76168C10.4283 1.66663 10.1344 1.66663 9.54642 1.66663C6.84227 1.66663 5.49018 1.66663 4.57436 2.40534C4.38934 2.55458 4.22082 2.72318 4.07164 2.90828C3.33325 3.82448 3.33325 5.17717 3.33325 7.88253V11.671C3.33325 14.815 3.33325 16.387 4.30956 17.3638C5.09547 18.15 6.26694 18.3034 8.33325 18.3333M10.8333 2.08348V2.50032C10.8333 4.85837 10.8333 6.03739 11.5655 6.76994C12.2978 7.50249 13.4763 7.50249 15.8333 7.50249H16.2499" stroke="white" stroke-width="1.25" stroke-linecap="round" stroke-linejoin="round"/>
</svg>
