<svg width="24" height="24" viewBox="0 0 24 24" fill="none" xmlns="http://www.w3.org/2000/svg">
<path fill-rule="evenodd" clip-rule="evenodd" d="M6.45 15.4138H3.9C3.402 15.4138 3 14.997 3 14.4828V4.86207C3 4.34783 3.402 3.93103 3.9 3.93103H4.8V3.46552C4.8 3.342 4.848 3.22376 4.932 3.13624C5.016 3.04903 5.13 3 5.25 3C5.37 3 5.484 3.04903 5.568 3.13624C5.652 3.22376 5.7 3.342 5.7 3.46552V3.93103H13.5V3.46552C13.5 3.342 13.548 3.22376 13.632 3.13624C13.716 3.04903 13.83 3 13.95 3C14.07 3 14.184 3.04903 14.268 3.13624C14.352 3.22376 14.4 3.342 14.4 3.46552V3.93103H15.3C15.798 3.93103 16.2 4.34783 16.2 4.86207V7.03448C16.5182 7.03465 16.8233 7.16549 17.0484 7.39826C17.2734 7.63102 17.3998 7.94668 17.4 8.27586C17.694 8.27586 17.976 8.38665 18.195 8.58621H20.1C20.34 8.58621 20.568 8.68428 20.736 8.859C20.904 9.03341 21 9.27021 21 9.51724V20.069C20.9995 20.3158 20.9046 20.5525 20.736 20.7272C20.568 20.9019 20.34 21 20.1 21H12.3C12.06 21 11.832 20.9019 11.664 20.7272C11.4954 20.5525 11.4005 20.3158 11.4 20.069V15.4138H8.25L9.75 16.9655L10.05 18.2069L8.85 17.8966L6.45 15.4138ZM14.1 19.2931V17.8966C14.1 17.7252 13.965 17.5862 13.8 17.5862C13.635 17.5862 13.5 17.7252 13.5 17.8966V19.2931C13.5 19.4644 13.635 19.6034 13.8 19.6034C13.965 19.6034 14.1 19.4644 14.1 19.2931ZM16.5 19.2931V15.4138C16.5 15.2425 16.365 15.1034 16.2 15.1034C16.035 15.1034 15.9 15.2425 15.9 15.4138V19.2931C15.9 19.4644 16.035 19.6034 16.2 19.6034C16.365 19.6034 16.5 19.4644 16.5 19.2931ZM17.7 19.2931V15.7241C17.7 15.5528 17.565 15.4138 17.4 15.4138C17.235 15.4138 17.1 15.5528 17.1 15.7241V19.2931C17.1 19.4644 17.235 19.6034 17.4 19.6034C17.565 19.6034 17.7 19.4644 17.7 19.2931ZM15.3 19.2931V16.8103C15.3 16.639 15.165 16.5 15 16.5C14.835 16.5 14.7 16.639 14.7 16.8103V19.2931C14.7 19.4644 14.835 19.6034 15 19.6034C15.165 19.6034 15.3 19.4644 15.3 19.2931ZM18.9 19.2931V17.2759C18.9 17.1046 18.765 16.9655 18.6 16.9655C18.435 16.9655 18.3 17.1046 18.3 17.2759V19.2931C18.3 19.4644 18.435 19.6034 18.6 19.6034C18.765 19.6034 18.9 19.4644 18.9 19.2931ZM15.6 7.20083V6.41379H3.6V14.4828C3.6 14.6541 3.735 14.7931 3.9 14.7931H5.85L5.805 14.7478L6.705 13.8168L7.65 14.7931H11.4V9.51724C11.4 9.003 11.802 8.58621 12.3 8.58621H14.205C14.424 8.38665 14.706 8.27586 15 8.27586C14.9999 8.05795 15.0554 7.84386 15.1607 7.65514C15.266 7.46642 15.4175 7.30973 15.6 7.20083ZM6.495 13.597L5.85 12.931C5.6114 12.9314 5.38267 13.0296 5.21395 13.2041C5.04524 13.3786 4.95032 13.6152 4.95 13.8621L5.595 14.5281L6.495 13.597ZM14.1 11.069C14.928 11.069 15.6 11.7641 15.6 12.6207C15.6 13.4772 14.928 14.1724 14.1 14.1724C13.272 14.1724 12.6 13.4772 12.6 12.6207C12.6 11.7641 13.272 11.069 14.1 11.069ZM17.4 14.1724H19.8C19.965 14.1724 20.1 14.0334 20.1 13.8621C20.1 13.6908 19.965 13.5517 19.8 13.5517H17.4C17.235 13.5517 17.1 13.6908 17.1 13.8621C17.1 14.0334 17.235 14.1724 17.4 14.1724ZM8.1 12.931H8.7C8.865 12.931 9 12.792 9 12.6207C9 12.4494 8.865 12.3103 8.7 12.3103H8.1C7.935 12.3103 7.8 12.4494 7.8 12.6207C7.8 12.792 7.935 12.931 8.1 12.931ZM17.4 12.931H19.8C19.965 12.931 20.1 12.792 20.1 12.6207C20.1 12.4494 19.965 12.3103 19.8 12.3103H17.4C17.235 12.3103 17.1 12.4494 17.1 12.6207C17.1 12.792 17.235 12.931 17.4 12.931ZM14.1 11.6897C14.598 11.6897 15 12.1068 15 12.6207H14.1V11.6897ZM17.4 11.6897H19.8C19.965 11.6897 20.1 11.5506 20.1 11.3793C20.1 11.208 19.965 11.069 19.8 11.069H17.4C17.235 11.069 17.1 11.208 17.1 11.3793C17.1 11.5506 17.235 11.6897 17.4 11.6897ZM5.7 11.3793H6.3C6.465 11.3793 6.6 11.2403 6.6 11.069C6.6 10.8977 6.465 10.7586 6.3 10.7586H5.7C5.535 10.7586 5.4 10.8977 5.4 11.069C5.4 11.2403 5.535 11.3793 5.7 11.3793ZM8.1 11.3793H8.7C8.865 11.3793 9 11.2403 9 11.069C9 10.8977 8.865 10.7586 8.7 10.7586H8.1C7.935 10.7586 7.8 10.8977 7.8 11.069C7.8 11.2403 7.935 11.3793 8.1 11.3793ZM8.1 9.82759H8.7C8.865 9.82759 9 9.68855 9 9.51724C9 9.34593 8.865 9.2069 8.7 9.2069H8.1C7.935 9.2069 7.8 9.34593 7.8 9.51724C7.8 9.68855 7.935 9.82759 8.1 9.82759ZM5.7 9.82759H6.3C6.465 9.82759 6.6 9.68855 6.6 9.51724C6.6 9.34593 6.465 9.2069 6.3 9.2069H5.7C5.535 9.2069 5.4 9.34593 5.4 9.51724C5.4 9.68855 5.535 9.82759 5.7 9.82759ZM18 9.51724H14.4C14.4 9.35276 14.463 9.19479 14.577 9.07841C14.688 8.96203 14.841 8.89655 15 8.89655H15.3C15.3 8.89655 15.6 8.87359 15.6 8.58217V8.27586C15.6 8.11138 15.663 7.95341 15.777 7.83703C15.888 7.72066 16.041 7.65517 16.2 7.65517C16.359 7.65517 16.512 7.72066 16.623 7.83703C16.737 7.95341 16.8 8.11138 16.8 8.27586V8.58217C16.8 8.87359 17.1 8.89655 17.1 8.89655H17.4C17.559 8.89655 17.712 8.96203 17.823 9.07841C17.937 9.19479 18 9.35276 18 9.51724ZM5.7 8.27586H6.3C6.465 8.27586 6.6 8.13683 6.6 7.96552C6.6 7.79421 6.465 7.65517 6.3 7.65517H5.7C5.535 7.65517 5.4 7.79421 5.4 7.96552C5.4 8.13683 5.535 8.27586 5.7 8.27586ZM10.5 8.27586H11.1C11.265 8.27586 11.4 8.13683 11.4 7.96552C11.4 7.79421 11.265 7.65517 11.1 7.65517H10.5C10.335 7.65517 10.2 7.79421 10.2 7.96552C10.2 8.13683 10.335 8.27586 10.5 8.27586ZM8.1 8.27586H8.7C8.865 8.27586 9 8.13683 9 7.96552C9 7.79421 8.865 7.65517 8.7 7.65517H8.1C7.935 7.65517 7.8 7.79421 7.8 7.96552C7.8 8.13683 7.935 8.27586 8.1 8.27586ZM14.4 4.55172V4.7069C14.4 4.83041 14.352 4.94866 14.268 5.03617C14.184 5.12338 14.07 5.17241 13.95 5.17241C13.83 5.17241 13.716 5.12338 13.632 5.03617C13.5477 4.94872 13.5003 4.83037 13.5 4.7069V4.55172H5.7V4.7069C5.7 4.83041 5.652 4.94866 5.568 5.03617C5.484 5.12338 5.37 5.17241 5.25 5.17241C5.13 5.17241 5.016 5.12338 4.932 5.03617C4.84773 4.94872 4.80029 4.83037 4.8 4.7069V4.55172H3.9C3.735 4.55172 3.6 4.69076 3.6 4.86207V5.7931H15.6V4.86207C15.6 4.69076 15.465 4.55172 15.3 4.55172H14.4Z" fill="#203876"/>
</svg>
