<?xml version="1.0" encoding="UTF-8"?>
<svg version="1.1" xmlns="http://www.w3.org/2000/svg" width="512" height="512">
<path d="M0 0 C0.96495895 -0.0065712 1.92991791 -0.0131424 2.92411804 -0.01991272 C6.11347541 -0.03959962 9.30278569 -0.05130049 12.4921875 -0.0612793 C13.58566498 -0.06535482 14.67914246 -0.06943035 15.80575562 -0.07362938 C21.59787811 -0.09447434 27.38997705 -0.10878072 33.18212891 -0.11816406 C39.13900424 -0.12920188 45.0955033 -0.16357628 51.05224609 -0.20333576 C55.65420178 -0.22959598 60.25606926 -0.23786443 64.85809326 -0.24144554 C67.05233286 -0.24629021 69.24656909 -0.25784299 71.44073486 -0.27648354 C90.52516591 -0.42848843 104.15419042 1.45607368 118.6171875 14.98950195 C128.98485261 25.83889696 132.50852853 38.53582551 132.52832031 53.18896484 C132.53328522 54.07604126 132.53825012 54.96311768 132.54336548 55.8770752 C132.55792514 58.80127756 132.56478015 61.7254256 132.5703125 64.6496582 C132.57455357 66.15610806 132.57455357 66.15610806 132.57888031 67.69299126 C132.59385107 73.01180152 132.60309279 78.33058482 132.60742188 83.64941406 C132.6128912 89.1140806 132.63689283 94.57849605 132.66539383 100.04308414 C132.68412471 104.2701639 132.68923143 108.49718456 132.69075775 112.72430229 C132.69376325 114.73710942 132.70171966 116.74991603 132.71494293 118.76268196 C132.83030308 137.6781709 131.19348664 153.67103373 117.5546875 168.1105957 C106.70139054 178.36308515 94.05860333 182.31860989 79.37695312 182.33813477 C78.48026917 182.34309967 77.58358521 182.34806458 76.659729 182.35317993 C73.69762395 182.36776426 70.73557255 182.37459928 67.7734375 182.38012695 C65.70422363 182.38588385 63.63500976 182.39164152 61.5657959 182.3973999 C57.224851 182.40790096 52.88392456 182.4137487 48.54296875 182.41723633 C43.0098935 182.42270259 37.47706661 182.44669442 31.94406891 182.47520828 C27.66637488 182.49393892 23.38873925 182.4990459 19.11100769 182.5005722 C17.07308096 182.50357853 15.03515475 182.51153784 12.99726868 182.52475739 C-4.53262125 182.63030458 -20.56439085 181.94690213 -34.05981445 169.23388672 C-46.16537375 157.26303774 -50.01465973 145.38919993 -50.1798172 128.66140747 C-50.18886824 125.47893385 -50.17761856 122.29695413 -50.1640625 119.11450195 C-50.16676207 116.87353345 -50.17064834 114.63256609 -50.17565918 112.39160156 C-50.18153231 107.71155566 -50.1730618 103.03181666 -50.15429688 98.35180664 C-50.13150906 92.38038193 -50.14464387 86.40967658 -50.16858673 80.4382782 C-50.18310381 75.81574167 -50.17841165 71.19337313 -50.16807556 66.5708313 C-50.1654246 64.37020785 -50.16862002 62.1695687 -50.17799377 59.96896362 C-50.23878435 41.69033208 -48.34232663 27.36930961 -35.3203125 13.36450195 C-25.17690994 3.85933596 -13.58026459 0.04030357 0 0 Z " fill="#1F3775" transform="translate(97.6328125,47.822998046875)"/>
<path d="M0 0 C1.96856271 -0.00389546 3.9371246 -0.00823186 5.90568542 -0.01298523 C10.01828748 -0.02041549 14.13080364 -0.02017967 18.2434082 -0.01489258 C23.47805479 -0.00910552 28.71234667 -0.02602628 33.9469347 -0.04923725 C38.00935372 -0.06406766 42.07168917 -0.06483365 46.13413048 -0.06172752 C48.06237171 -0.06223618 49.9906182 -0.06738682 51.91883278 -0.07753944 C70.78451198 -0.1646914 87.10459566 1.33085862 101.40625 14.9140625 C109.37468261 23.09677228 115.80877705 32.76327805 115.87763977 44.57336426 C115.88837273 45.84296494 115.88837273 45.84296494 115.89932251 47.13821411 C115.90201141 48.0587558 115.90470032 48.97929749 115.9074707 49.92773438 C115.9140419 50.90390717 115.9206131 51.88007996 115.92738342 52.88583374 C115.94709868 56.1179004 115.9587777 59.34992053 115.96875 62.58203125 C115.97282553 63.68870651 115.97690105 64.79538177 115.98110008 65.93559265 C116.00195742 71.79788017 116.01625828 77.66014434 116.02563477 83.52246094 C116.03667333 89.55681057 116.07104504 95.59078884 116.11080647 101.62500763 C116.137048 106.28182628 116.1453335 110.93855765 116.14891624 115.59544373 C116.15376597 117.81842037 116.16533346 120.04139354 116.18395424 122.26429749 C116.32849622 140.66953429 114.53880969 155.00218817 101.41796875 169.11328125 C87.26865382 182.25642267 71.1525371 182.91064335 52.88671875 182.83203125 C50.66817048 182.8347309 48.44962336 182.83861724 46.2310791 182.84362793 C41.59811048 182.84950067 36.9654519 182.84103185 32.33251953 182.82226562 C26.42162643 182.79947782 20.51146007 182.81261284 14.60059357 182.83655548 C10.02437964 182.85107364 5.44833538 182.84637992 0.87211609 182.83604431 C-1.30617867 182.83339364 -3.4844893 182.8365877 -5.6627655 182.84596252 C-23.66444944 182.90645293 -38.39856748 180.94408084 -52.01953125 168.05078125 C-62.60838521 156.90068061 -66.41029184 144.37169322 -66.43066406 129.28881836 C-66.43562897 128.40174194 -66.44059387 127.51466553 -66.44570923 126.60070801 C-66.46026889 123.67650565 -66.4671239 120.7523576 -66.47265625 117.828125 C-66.47548363 116.82382509 -66.478311 115.81952518 -66.48122406 114.78479195 C-66.49619482 109.46598169 -66.50543654 104.14719838 -66.50976562 98.82836914 C-66.51523495 93.36370261 -66.53923658 87.89928715 -66.56773758 82.43469906 C-66.58646846 78.2076193 -66.59157518 73.98059864 -66.5931015 69.75348091 C-66.596107 67.74067379 -66.60406341 65.72786717 -66.61728668 63.71510124 C-66.72891031 45.41228656 -65.37233473 29.25379468 -52.24609375 15.14453125 C-36.82627694 0.76082861 -20.00455183 -0.01657043 0 0 Z " fill="#1F3775" transform="translate(348.26953125,281.69921875)"/>
<path d="M0 0 C1.45466675 -0.00744736 1.45466675 -0.00744736 2.9387207 -0.01504517 C6.14250401 -0.02963234 9.34623778 -0.03646364 12.55004883 -0.04199219 C14.78339132 -0.04774718 17.01673381 -0.05350487 19.25007629 -0.05926514 C23.93315867 -0.06976582 28.61622392 -0.07561436 33.29931641 -0.07910156 C39.28332181 -0.08457938 45.2670989 -0.10859631 51.25103283 -0.13707352 C55.86573434 -0.15575175 60.48038146 -0.1609083 65.09511757 -0.16243744 C67.30019692 -0.16545359 69.50527556 -0.17344685 71.71031761 -0.18662262 C74.80444783 -0.20378886 77.89802823 -0.20177684 80.9921875 -0.1953125 C81.89280411 -0.20452728 82.79342072 -0.21374207 83.72132874 -0.22323608 C97.29686736 -0.1349495 108.19027024 5.47113677 117.96020508 14.64941406 C131.44160745 29.00130434 131.93925025 44.55510762 131.88598633 63.15332031 C131.89123091 65.38949846 131.89751042 67.6256744 131.9047699 69.86184692 C131.91513852 74.53349262 131.91066406 79.20483305 131.89599609 83.87646484 C131.87882321 89.82986594 131.90230487 95.78230046 131.93748569 101.7355938 C131.95956591 106.34964253 131.95799239 110.96346382 131.94972038 115.57754898 C131.9489065 117.77094711 131.95566074 119.96436289 131.97049141 122.15771103 C132.06501651 138.66619643 131.08985158 152.45025646 119.31958008 165.16113281 C118.77430664 165.78503906 118.2290332 166.40894531 117.66723633 167.05175781 C109.32446687 176.08157887 97.61804561 181.65608501 85.30726242 182.25981903 C82.9377361 182.3048524 80.56990664 182.31910625 78.19995117 182.32226562 C77.30151489 182.32723053 76.40307861 182.33219543 75.47741699 182.33731079 C72.5159426 182.3518704 69.55452183 182.35872501 66.59301758 182.36425781 C65.57643696 182.36708519 64.55985634 182.36991257 63.51247025 182.37282562 C58.12997428 182.38779542 52.74750495 182.39703808 47.36499023 182.40136719 C41.83072452 182.40684024 36.29670627 182.43085008 30.76251793 182.45933914 C26.48486645 182.47805368 22.20727345 182.48317586 17.9295845 182.48470306 C15.89083126 182.48771159 13.8520786 182.49567854 11.81336594 182.50888824 C-6.69481789 182.62022579 -22.33437686 180.97217679 -36.35620117 167.67675781 C-46.75909076 156.41715968 -50.82128987 143.163688 -50.84155273 128.13330078 C-50.84651764 127.24461807 -50.85148254 126.35593536 -50.8565979 125.44032288 C-50.87115618 122.51131401 -50.87801191 119.58235936 -50.88354492 116.65332031 C-50.8863723 115.64777225 -50.88919968 114.6422242 -50.89211273 113.60620499 C-50.90708202 108.28206369 -50.91632499 102.95794932 -50.9206543 97.63378906 C-50.92612712 92.1600563 -50.95013661 86.68657376 -50.97862625 81.21291924 C-50.99734254 76.98159082 -51.00246306 72.75032152 -51.00399017 68.51895523 C-51.00699833 66.50253053 -51.01496401 64.48610641 -51.02817535 62.46972275 C-51.14116498 43.89485357 -49.39231644 28.51533212 -36.06713867 14.48535156 C-25.32683394 4.02629867 -14.82838815 0.01820068 0 0 Z M-12.55541992 37.41113281 C-17.19087905 43.40996228 -18.12529317 48.58006462 -18.06860352 55.9387207 C-18.07386047 56.78841934 -18.07911743 57.63811798 -18.08453369 58.51356506 C-18.0976668 61.30383035 -18.08902023 64.09351864 -18.07885742 66.88378906 C-18.08087989 68.83239348 -18.08379277 70.78099716 -18.08755493 72.729599 C-18.09196906 76.80556472 -18.08557586 80.88133271 -18.0715332 84.95727539 C-18.05443054 90.17491144 -18.06429519 95.39208487 -18.0822506 100.60970402 C-18.09310332 104.63064546 -18.08963544 108.65147763 -18.08186722 112.67242241 C-18.07986992 114.59610487 -18.08230792 116.51979733 -18.08930588 118.44346809 C-18.0969461 121.13355843 -18.08528075 123.82290439 -18.06860352 126.51293945 C-18.07467621 127.30323547 -18.0807489 128.09353149 -18.08700562 128.90777588 C-18.01642396 135.07010028 -16.45530254 139.0984314 -12.36791992 143.84863281 C-6.77529804 148.66088885 -2.15672785 149.60575807 4.9519043 149.56518555 C5.79824432 149.5720488 6.64458435 149.57891205 7.51657104 149.58598328 C10.30264261 149.60422135 13.08814936 149.60041762 15.87426758 149.59472656 C17.81951072 149.59929024 19.76475226 149.60459637 21.70999146 149.61061096 C25.7835343 149.61953653 29.85688106 149.61712573 33.93041992 149.60717773 C39.13789478 149.59569678 44.34469066 149.61588908 49.55207634 149.64509487 C53.56881984 149.66348671 57.5854016 149.66315832 61.60217667 149.65745735 C63.52142412 149.65730446 65.44068276 149.66332214 67.35988998 149.67574883 C70.04984208 149.69071117 72.73855221 149.67994324 75.4284668 149.6628418 C76.21314331 149.67250977 76.99781982 149.68217773 77.80627441 149.69213867 C83.96986965 149.61053402 89.15230819 147.93512087 93.85076714 143.82007504 C99.05651886 138.11990454 99.61948572 131.39530132 99.59423828 123.99780273 C99.60190468 122.82067467 99.60190468 122.82067467 99.60972595 121.61976624 C99.6235455 119.04363221 99.62267068 116.4677681 99.62036133 113.89160156 C99.62425303 112.08710126 99.62858867 110.28260186 99.63334656 108.47810364 C99.6407928 104.70143664 99.64052951 100.92486314 99.63525391 97.14819336 C99.62946761 92.33003873 99.64637772 87.51226956 99.66959858 82.69417858 C99.68439739 78.96818335 99.68519918 75.24227957 99.68208885 71.51626015 C99.68259918 69.74101309 99.68778226 67.96576052 99.69790077 66.19054222 C100.34294667 51.38442304 100.34294667 51.38442304 94.72138977 38.24186707 C89.41084734 32.95997874 82.4552319 31.9534749 75.22036743 31.87896729 C74.49650848 31.8814447 73.77264954 31.88392212 73.02685547 31.88647461 C72.2403511 31.88136368 71.45384674 31.87625275 70.64350891 31.87098694 C68.06800527 31.8571942 65.4927723 31.85803974 62.91723633 31.86035156 C61.11176964 31.85645924 59.30630385 31.85212347 57.50083923 31.84736633 C53.7259524 31.8399265 49.95115913 31.84017932 46.17626953 31.84545898 C41.35692451 31.85125354 36.53796381 31.83431204 31.71868229 31.81111431 C27.99272959 31.79633008 24.26686849 31.79551159 20.54089165 31.79862404 C18.76481807 31.79811328 16.98873904 31.792922 15.21269417 31.78281212 C0.48852727 31.37075815 0.48852727 31.37075815 -12.55541992 37.41113281 Z " fill="#1F3775" transform="translate(332.680419921875,47.8388671875)"/>
<path d="M0 0 C0.85796173 -0.0049649 1.71592346 -0.00992981 2.59988403 -0.01504517 C5.42125266 -0.02957628 8.24256503 -0.0364545 11.06396484 -0.04199219 C12.03424999 -0.04481956 13.00453514 -0.04764694 14.00422287 -0.05056 C19.14148986 -0.0655179 24.27872903 -0.07476815 29.41601562 -0.07910156 C34.69120772 -0.08457354 39.96614008 -0.10858454 45.24125099 -0.13707352 C49.32507034 -0.15580866 53.40882855 -0.16091131 57.49268723 -0.16243744 C59.43571768 -0.16544123 61.37874765 -0.17339171 63.32173538 -0.18662262 C81.98360034 -0.30460771 98.96121708 1.49895208 113.18505859 15.02832031 C123.53601725 26.26415217 127.4702309 39.62225308 127.42456055 54.64306641 C127.42967148 55.53233322 127.43478241 56.42160004 127.44004822 57.33781433 C127.45382217 60.24513692 127.4529967 63.1522192 127.45068359 66.05957031 C127.4545772 68.10161424 127.45891323 70.14365736 127.46366882 72.18569946 C127.47110483 76.45390454 127.4708588 80.72202686 127.46557617 84.99023438 C127.45978492 90.43248693 127.47671721 95.87439879 127.49992085 101.31659508 C127.51472444 105.53077135 127.5155209 109.74486681 127.51241112 113.95906448 C127.51292099 115.96431783 127.51809536 117.96957609 127.52822304 119.97480392 C127.6105514 138.55275391 125.79608555 153.89370096 112.46240234 167.90722656 C104.35928871 175.80502481 93.54489025 182.23980423 81.9152832 182.30830383 C80.65830376 182.31903679 80.65830376 182.31903679 79.37593079 182.32998657 C78.46473984 182.33267548 77.55354889 182.33536438 76.61474609 182.33813477 C75.16511726 182.34799156 75.16511726 182.34799156 73.686203 182.35804749 C70.48660195 182.37776182 67.2870479 182.3894416 64.08740234 182.39941406 C62.99175964 182.40348959 61.89611694 182.40756512 60.76727295 182.41176414 C54.96334014 182.43262116 49.15943092 182.44692211 43.35546875 182.45629883 C37.38165156 182.46733689 31.40820955 182.50170807 25.43452454 182.54147053 C20.82402897 182.56771418 16.21362154 182.57599776 11.60305786 182.57958031 C9.40240965 182.58442954 7.20176494 182.59599564 5.00119019 182.6146183 C-12.28248755 182.75174269 -27.25397897 181.31263861 -40.53759766 168.97363281 C-54.50250565 153.9547695 -55.46420896 138.55134469 -55.38134766 119.09863281 C-55.38404722 116.85766431 -55.3879335 114.61669695 -55.39294434 112.37573242 C-55.39881747 107.69568652 -55.39034695 103.01594752 -55.37158203 98.3359375 C-55.34879422 92.36451279 -55.36192903 86.39380744 -55.38587189 80.42240906 C-55.40038896 75.79987253 -55.39569681 71.17750399 -55.38536072 66.55496216 C-55.38270975 64.35433871 -55.38590517 62.15369956 -55.39527893 59.95309448 C-55.45764928 41.19945073 -53.27600796 27.89465347 -39.91259766 13.84863281 C-28.7547087 3.24543814 -15.08570485 0.02118618 0 0 Z M-18.72509766 39.97363281 C-22.57545603 45.74917037 -23.1479036 51.54336563 -23.12475586 58.34033203 C-23.12986679 59.12669037 -23.13497772 59.91304871 -23.14024353 60.72323608 C-23.15406168 63.30417648 -23.15318856 65.88484748 -23.15087891 68.46582031 C-23.15477029 70.27271624 -23.15910587 72.07961127 -23.16386414 73.88650513 C-23.17130977 77.66736826 -23.17104724 81.44813799 -23.16577148 85.22900391 C-23.15998101 90.05622464 -23.1769057 94.88306116 -23.20011616 99.71021843 C-23.21490194 103.44046232 -23.21571859 107.17061472 -23.21260643 110.90088272 C-23.21311727 112.67974737 -23.21831015 114.45861746 -23.22841835 116.23745346 C-23.5856131 131.25180393 -23.5856131 131.25180393 -17.41259766 144.59863281 C-11.54797292 150.46325755 -4.75972224 150.31007048 3.21557617 150.32226562 C4.00178848 150.32723053 4.78800079 150.33219543 5.59803772 150.33731079 C8.18434543 150.3518477 10.77059183 150.35871995 13.35693359 150.36425781 C14.24486792 150.36708519 15.13280224 150.36991257 16.04764366 150.37282562 C20.74587677 150.3877835 25.44407943 150.39703462 30.14233398 150.40136719 C34.9774047 150.40684901 39.81219342 150.43088072 44.64717579 150.45933914 C48.38169654 150.47802804 52.11615017 150.48317443 55.85071373 150.48470306 C57.63237742 150.48771564 59.41404033 150.49569663 61.19565773 150.50888824 C75.49833142 151.05262468 75.49833142 151.05262468 88.27099609 145.51269531 C88.70541016 144.94292969 89.13982422 144.37316406 89.58740234 143.78613281 C90.03986328 143.22152344 90.49232422 142.65691406 90.95849609 142.07519531 C94.07972105 137.06076833 94.44288448 132.52102687 94.42456055 126.71826172 C94.43222694 125.46119164 94.43222694 125.46119164 94.44004822 124.1787262 C94.45392077 121.41497609 94.45298907 118.65147605 94.45068359 115.88769531 C94.45457207 113.96104846 94.45890705 112.03440246 94.46366882 110.10775757 C94.4711262 106.07115906 94.47084343 102.03464802 94.46557617 97.99804688 C94.45978503 92.83428041 94.47670634 87.67087303 94.49992085 82.50716591 C94.51467911 78.52822793 94.51552698 74.54937599 94.51241112 70.5704155 C94.51292337 68.6670905 94.51814302 66.76376056 94.52822304 64.86046219 C94.54060943 62.19433773 94.53378245 59.52890697 94.5222168 56.86279297 C94.52986053 56.08230087 94.53750427 55.30180878 94.54537964 54.49766541 C94.48410583 48.08203797 93.04569294 43.47821021 88.89990234 38.41113281 C83.04942141 33.62437568 77.80759542 32.71465188 70.49584961 32.75708008 C69.65911713 32.75021683 68.82238464 32.74335358 67.96029663 32.73628235 C65.21212483 32.71807763 62.46452737 32.72184273 59.71630859 32.72753906 C57.79491492 32.72297424 55.87352287 32.71766778 53.95213318 32.71165466 C49.93164422 32.702736 45.91135403 32.70513255 41.89086914 32.71508789 C36.75180108 32.72657627 31.61342029 32.70636165 26.47444248 32.67717075 C22.50831278 32.65877948 18.54234689 32.65910705 14.57618523 32.66480827 C12.68205743 32.66496113 10.78791827 32.65894658 8.89383125 32.6465168 C6.2399052 32.63155296 3.58723767 32.64232284 0.93334961 32.65942383 C0.15959488 32.64975586 -0.61415985 32.64008789 -1.41136169 32.63012695 C-8.20781377 32.72132097 -14.06982269 34.87462504 -18.72509766 39.97363281 Z " fill="#1F3775" transform="translate(102.85009765625,281.8388671875)"/>
</svg>
