<svg width="20" height="20" viewBox="0 0 20 20" fill="none" xmlns="http://www.w3.org/2000/svg">
<path d="M16.2499 14.5833C16.2499 15.7339 15.3172 16.6667 14.1666 16.6667C13.016 16.6667 12.0833 15.7339 12.0833 14.5833C12.0833 13.4327 13.016 12.5 14.1666 12.5C15.3172 12.5 16.2499 13.4327 16.2499 14.5833Z" stroke="#203876" stroke-width="1.25"/>
<path d="M7.91667 14.5833C7.91667 15.7339 6.98392 16.6667 5.83333 16.6667C4.68274 16.6667 3.75 15.7339 3.75 14.5833C3.75 13.4327 4.68274 12.5 5.83333 12.5C6.98392 12.5 7.91667 13.4327 7.91667 14.5833Z" stroke="#203876" stroke-width="1.25"/>
<path d="M12.0834 14.5833H7.91675M16.2501 14.5833H16.8861C17.0693 14.5833 17.161 14.5833 17.238 14.5738C17.8058 14.503 18.2531 14.0558 18.3238 13.4879C18.3334 13.4109 18.3334 13.3193 18.3334 13.136V10.8333C18.3334 7.8418 15.9083 5.41668 12.9167 5.41668M12.5001 12.9167V5.83334C12.5001 4.65484 12.5001 4.06558 12.134 3.69946C11.7678 3.33334 11.1786 3.33334 10.0001 3.33334H4.16675C2.98824 3.33334 2.39898 3.33334 2.03286 3.69946C1.66675 4.06558 1.66675 4.65484 1.66675 5.83334V12.5C1.66675 13.2788 1.66675 13.6683 1.83421 13.9583C1.94392 14.1483 2.10172 14.3062 2.29175 14.4158C2.58181 14.5833 2.97123 14.5833 3.75008 14.5833" stroke="#203876" stroke-width="1.25" stroke-linecap="round" stroke-linejoin="round"/>
</svg>
