<svg width="20" height="20" viewBox="0 0 20 20" fill="none" xmlns="http://www.w3.org/2000/svg">
<g id="Frame">
<path id="Vector" d="M16.2502 14.5833C16.2502 15.7339 15.3174 16.6667 14.1668 16.6667C13.0162 16.6667 12.0835 15.7339 12.0835 14.5833C12.0835 13.4327 13.0162 12.5 14.1668 12.5C15.3174 12.5 16.2502 13.4327 16.2502 14.5833Z" stroke="white" stroke-width="1.25"/>
<path id="Vector_2" d="M7.91667 14.5833C7.91667 15.7339 6.98392 16.6667 5.83333 16.6667C4.68274 16.6667 3.75 15.7339 3.75 14.5833C3.75 13.4327 4.68274 12.5 5.83333 12.5C6.98392 12.5 7.91667 13.4327 7.91667 14.5833Z" stroke="white" stroke-width="1.25"/>
<path id="Vector_3" d="M12.0832 14.5833H7.9165M16.2498 14.5833H16.8858C17.0691 14.5833 17.1608 14.5833 17.2378 14.5738C17.8056 14.503 18.2528 14.0558 18.3236 13.4879C18.3332 13.4109 18.3332 13.3193 18.3332 13.136V10.8333C18.3332 7.8418 15.9081 5.41668 12.9165 5.41668M12.4998 12.9167V5.83334C12.4998 4.65484 12.4998 4.06558 12.1338 3.69946C11.7676 3.33334 11.1783 3.33334 9.99984 3.33334H4.1665C2.988 3.33334 2.39874 3.33334 2.03262 3.69946C1.6665 4.06558 1.6665 4.65484 1.6665 5.83334V12.5C1.6665 13.2788 1.6665 13.6683 1.83397 13.9583C1.94368 14.1483 2.10148 14.3062 2.2915 14.4158C2.58157 14.5833 2.97099 14.5833 3.74984 14.5833" stroke="white" stroke-width="1.25" stroke-linecap="round" stroke-linejoin="round"/>
</g>
</svg>
