<svg width="18" height="18" viewBox="0 0 18 18" fill="none" xmlns="http://www.w3.org/2000/svg">
<path d="M10.5244 0.257812C10.6959 0.257923 10.8601 0.326107 10.9814 0.447266C11.1029 0.568701 11.1719 0.733539 11.1719 0.905273C11.1719 1.07703 11.1029 1.24183 10.9814 1.36328C10.8601 1.48447 10.6959 1.55262 10.5244 1.55273H5.00684C4.03711 1.56395 3.1096 1.95394 2.42383 2.63965C1.73805 3.32543 1.34813 4.25288 1.33691 5.22266V12.9941C1.34825 13.9637 1.73822 14.8905 2.42383 15.5762C3.10961 16.262 4.03706 16.6519 5.00684 16.6631H12.7773C13.7471 16.6519 14.6746 16.262 15.3604 15.5762C16.0459 14.8905 16.4359 13.9637 16.4473 12.9941V7.8125C16.4474 7.64107 16.5156 7.47678 16.6367 7.35547C16.7581 7.23406 16.923 7.16508 17.0947 7.16504C17.2665 7.16504 17.4313 7.23402 17.5527 7.35547C17.674 7.47679 17.7421 7.641 17.7422 7.8125V12.9941C17.7308 14.3072 17.2039 15.5636 16.2754 16.4922C15.3468 17.4206 14.0904 17.9477 12.7773 17.959H5.00684C3.69374 17.9477 2.43741 17.4206 1.50879 16.4922C0.58024 15.5636 0.0533866 14.3072 0.0419922 12.9941V5.22266C0.0532655 3.90938 0.58013 2.65327 1.50879 1.72461C2.43744 0.796026 3.69362 0.269085 5.00684 0.257812H10.5244ZM12.3457 12.5615C12.5174 12.5615 12.6823 12.6297 12.8037 12.751C12.9251 12.8724 12.9931 13.0373 12.9932 13.209C12.9932 13.3807 12.9252 13.5455 12.8037 13.667C12.6823 13.7884 12.5175 13.8564 12.3457 13.8564H4.84277C4.67104 13.8564 4.50621 13.7884 4.38477 13.667C4.26332 13.5455 4.19531 13.3807 4.19531 13.209C4.19537 13.0373 4.26337 12.8724 4.38477 12.751C4.50619 12.6297 4.67114 12.5615 4.84277 12.5615H12.3457ZM8.89258 9.10742C9.06414 9.10755 9.22828 9.17654 9.34961 9.29785C9.47106 9.4193 9.54004 9.58411 9.54004 9.75586C9.53992 9.92744 9.47094 10.0915 9.34961 10.2129C9.22828 10.3342 9.06416 10.4032 8.89258 10.4033H4.84277C4.67102 10.4033 4.50621 10.3343 4.38477 10.2129C4.2635 10.0916 4.19543 9.92739 4.19531 9.75586C4.19531 9.58415 4.26337 9.41929 4.38477 9.29785C4.50621 9.1764 4.67102 9.10742 4.84277 9.10742H8.89258ZM15.3682 0.0419922C16.0551 0.0420272 16.7135 0.315044 17.1992 0.800781C17.685 1.28652 17.958 1.9449 17.958 2.63184C17.958 3.14416 17.8061 3.64531 17.5215 4.07129C17.2369 4.49715 16.8326 4.82937 16.3594 5.02539C15.8861 5.22144 15.3648 5.2728 14.8623 5.17285C14.3599 5.07286 13.8983 4.82606 13.5361 4.46387C13.1739 4.10166 12.9271 3.64007 12.8271 3.1377C12.7272 2.63521 12.7786 2.11395 12.9746 1.64062C13.1706 1.1674 13.5029 0.763136 13.9287 0.478516C14.3547 0.193883 14.8558 0.0419922 15.3682 0.0419922ZM15.3682 1.33691C15.0247 1.33691 14.695 1.47303 14.4521 1.71582C14.2093 1.95867 14.0733 2.2884 14.0732 2.63184C14.0732 2.88797 14.1487 3.13859 14.291 3.35156C14.4333 3.56452 14.6355 3.73107 14.8721 3.8291C15.1087 3.92713 15.3699 3.95232 15.6211 3.90234C15.8722 3.85232 16.1031 3.7289 16.2842 3.54785C16.4652 3.36674 16.5887 3.13593 16.6387 2.88477C16.6886 2.63361 16.6624 2.37332 16.5645 2.13672C16.4664 1.90006 16.3009 1.697 16.0879 1.55469C15.8749 1.4124 15.6243 1.33694 15.3682 1.33691Z" fill="#99A1B7"/>
</svg>
