<svg width="20" height="20" viewBox="0 0 20 20" fill="none" xmlns="http://www.w3.org/2000/svg">
<path d="M13.7555 0C17.5902 0 20 2.39219 20 6.25313V8.82148C20 8.92156 19.9802 9.02064 19.9416 9.11298C19.903 9.20532 19.8465 9.28909 19.7753 9.35944C19.7042 9.42978 19.6197 9.4853 19.5269 9.52277C19.4341 9.56024 19.3348 9.57892 19.2348 9.57773V9.56016C19.0318 9.56016 18.8372 9.47953 18.6937 9.33602C18.5502 9.19252 18.4695 8.99787 18.4695 8.79492V6.25313C18.4695 3.20312 16.7969 1.53047 13.7555 1.53047H6.25313C3.21016 1.53047 1.53047 3.21016 1.53047 6.25313V13.7555C1.53047 16.7898 3.21016 18.4695 6.25313 18.4695H13.7555C16.7984 18.4695 18.4695 16.7898 18.4695 13.7555C18.4695 13.5525 18.5502 13.3579 18.6937 13.2144C18.8372 13.0709 19.0318 12.9902 19.2348 12.9902C19.4377 12.9902 19.6324 13.0709 19.7759 13.2144C19.9194 13.3579 20 13.5525 20 13.7555C20 17.6078 17.6078 20 13.7555 20H6.25313C2.39219 20 0 17.6078 0 13.7555V6.25313C0 2.39219 2.39219 0 6.25313 0H13.7555ZM10.0703 11.6445C10.1712 11.6468 10.2706 11.6692 10.3627 11.7104C10.4548 11.7517 10.5377 11.8109 10.6066 11.8847C10.6754 11.9585 10.7288 12.0453 10.7635 12.1401C10.7983 12.2348 10.8138 12.3355 10.809 12.4363V13.4035L10.7957 13.5238C10.7591 13.7131 10.6524 13.8816 10.4969 13.9956C10.3415 14.1096 10.1488 14.1608 9.95725 14.139C9.76572 14.1171 9.58948 14.0238 9.46373 13.8777C9.33798 13.7316 9.27198 13.5434 9.27891 13.3508V12.3828C9.28238 12.2824 9.30562 12.1836 9.34727 12.0921C9.38893 12.0007 9.4482 11.9183 9.52169 11.8497C9.59518 11.7812 9.68145 11.7278 9.77559 11.6926C9.86972 11.6574 9.96987 11.641 10.0703 11.6445ZM10.0352 5.84883C10.1194 5.84873 10.2031 5.86272 10.2828 5.89023C10.4401 5.93778 10.5778 6.03467 10.6757 6.16657C10.7737 6.29847 10.8265 6.45838 10.8266 6.62266V9.01406H13.4305C13.6328 9.01107 13.8282 9.08785 13.9743 9.22778C14.1205 9.36772 14.2057 9.55957 14.2115 9.76183C14.2173 9.96409 14.1432 10.1605 14.0053 10.3086C13.8674 10.4567 13.6768 10.5445 13.4746 10.5531H6.65781C6.58792 10.5516 6.51855 10.5407 6.45156 10.5207C6.28546 10.4794 6.13778 10.3841 6.03172 10.2498C5.92566 10.1154 5.86724 9.94967 5.86563 9.77852C5.86444 9.67845 5.88312 9.57914 5.92059 9.48635C5.95806 9.39356 6.01358 9.30913 6.08392 9.23795C6.15427 9.16677 6.23804 9.11026 6.33038 9.07169C6.42272 9.03313 6.5218 9.01327 6.62188 9.01328H9.26055V6.61406C9.26471 6.41079 9.34795 6.21716 9.49258 6.07427C9.63721 5.93139 9.83185 5.85051 10.0352 5.84883Z" fill="#0C8CE9"/>
</svg>
